<svg width="469" height="469" viewBox="0 0 469 469" fill="none" xmlns="http://www.w3.org/2000/svg">
<path d="M106.042 157.819L107.562 160.886L110.957 161.383L108.5 163.775L109.081 167.152L106.042 165.557L103.012 167.152L103.594 163.775L101.136 161.383L104.532 160.886L106.042 157.819Z" fill="#EBEBEB"/>
<path d="M409.626 302.486L411.146 305.563L414.542 306.06L412.084 308.443L412.666 311.829L409.626 310.234L406.597 311.829L407.178 308.443L404.721 306.06L408.116 305.563L409.626 302.486Z" fill="#F5F5F5"/>
<path d="M349.501 391.681L351.02 394.748L354.407 395.245L351.949 397.637L352.531 401.014L349.501 399.419L346.471 401.014L347.043 397.637L344.595 395.245L347.981 394.748L349.501 391.681Z" fill="#F5F5F5"/>
<path d="M211.933 103.321L212.496 104.465L213.763 104.653C213.833 104.662 213.9 104.691 213.954 104.737C214.009 104.782 214.05 104.843 214.071 104.911C214.093 104.978 214.095 105.051 214.077 105.12C214.059 105.189 214.021 105.251 213.969 105.3L213.031 106.191L213.247 107.448C213.258 107.518 213.249 107.589 213.222 107.655C213.195 107.72 213.151 107.777 213.093 107.819C213.036 107.86 212.968 107.886 212.898 107.891C212.827 107.897 212.756 107.883 212.693 107.851L211.568 107.251L210.442 107.851C210.379 107.883 210.308 107.897 210.237 107.891C210.167 107.886 210.099 107.86 210.042 107.819C209.985 107.777 209.94 107.72 209.913 107.655C209.886 107.589 209.877 107.518 209.889 107.448L210.095 106.191L209.157 105.3C209.104 105.251 209.067 105.188 209.049 105.118C209.032 105.048 209.034 104.975 209.057 104.907C209.08 104.839 209.122 104.779 209.178 104.733C209.234 104.688 209.301 104.66 209.373 104.653L210.63 104.465L211.192 103.321C211.215 103.24 211.263 103.168 211.33 103.117C211.397 103.067 211.479 103.039 211.563 103.039C211.647 103.039 211.729 103.067 211.796 103.117C211.862 103.168 211.911 103.24 211.933 103.321Z" fill="#EBEBEB"/>
<path d="M57.0131 377.076L57.5759 378.211L58.8329 378.399C58.9042 378.408 58.9714 378.438 59.0267 378.484C59.082 378.53 59.1233 378.591 59.1458 378.659C59.1682 378.728 59.171 378.801 59.1539 378.871C59.1367 378.941 59.1002 379.005 59.0486 379.055L58.1106 379.937L58.3263 381.194C58.3374 381.264 58.329 381.335 58.3019 381.401C58.2748 381.466 58.2302 381.523 58.173 381.565C58.1158 381.606 58.0481 381.632 57.9775 381.637C57.9069 381.643 57.8361 381.629 57.7729 381.597L56.6473 381.006L55.5217 381.597C55.4585 381.629 55.3877 381.643 55.3171 381.637C55.2465 381.632 55.1789 381.606 55.1216 381.565C55.0644 381.523 55.0198 381.466 54.9927 381.401C54.9657 381.335 54.9572 381.264 54.9683 381.194L55.184 379.937L54.246 379.055C54.1946 379.006 54.158 378.943 54.1403 378.873C54.1227 378.804 54.1247 378.731 54.1461 378.663C54.1675 378.595 54.2076 378.534 54.2617 378.487C54.3158 378.441 54.3818 378.41 54.4524 378.399L55.7093 378.211L56.2815 377.076C56.3066 376.999 56.3555 376.931 56.4212 376.884C56.4869 376.836 56.5661 376.81 56.6473 376.81C56.7286 376.81 56.8077 376.836 56.8735 376.884C56.9392 376.931 56.9881 376.999 57.0131 377.076Z" fill="#F5F5F5"/>
<path d="M82.3106 91.2674L82.8734 92.4118L84.1397 92.59C84.2103 92.6013 84.2763 92.632 84.3304 92.6787C84.3845 92.7254 84.4245 92.7863 84.446 92.8545C84.4674 92.9227 84.4694 92.9955 84.4517 93.0648C84.4341 93.134 84.3975 93.197 84.346 93.2466L83.408 94.1846L83.6238 95.4322C83.6388 95.503 83.6329 95.5766 83.607 95.6442C83.5811 95.7118 83.5362 95.7704 83.4777 95.8131C83.4192 95.8557 83.3496 95.8805 83.2773 95.8845C83.2051 95.8885 83.1332 95.8714 83.0703 95.8355L81.9448 95.2446L80.8192 95.8355C80.7563 95.8714 80.6844 95.8885 80.6122 95.8845C80.5399 95.8805 80.4703 95.8557 80.4118 95.8131C80.3533 95.7704 80.3084 95.7118 80.2825 95.6442C80.2566 95.5766 80.2507 95.503 80.2657 95.4322L80.4721 94.1846L79.5341 93.2466C79.4825 93.1964 79.446 93.1327 79.4288 93.0627C79.4116 92.9928 79.4145 92.9194 79.4369 92.8509C79.4594 92.7825 79.5007 92.7218 79.556 92.6756C79.6113 92.6295 79.6785 92.5998 79.7498 92.59L81.0068 92.4118L81.6071 91.2674C81.6372 91.1993 81.6865 91.1413 81.7489 91.1007C81.8114 91.06 81.8843 91.0383 81.9588 91.0383C82.0333 91.0383 82.1063 91.06 82.1687 91.1007C82.2312 91.1413 82.2804 91.1993 82.3106 91.2674Z" fill="#EBEBEB"/>
<path d="M80.7918 317.344C80.7937 317.591 80.7221 317.833 80.5861 318.04C80.4502 318.246 80.256 318.408 80.0282 318.503C79.8004 318.599 79.5493 318.625 79.3067 318.578C79.0641 318.531 78.8409 318.413 78.6655 318.239C78.4901 318.065 78.3703 317.843 78.3214 317.6C78.2725 317.358 78.2967 317.107 78.3908 316.878C78.485 316.65 78.6448 316.454 78.8502 316.317C79.0556 316.179 79.2971 316.106 79.5443 316.106C79.8735 316.106 80.1894 316.236 80.4231 316.468C80.6568 316.7 80.7893 317.015 80.7918 317.344Z" fill="#EBEBEB"/>
<path d="M258.579 161.233C258.581 161.48 258.509 161.722 258.373 161.928C258.237 162.135 258.043 162.296 257.815 162.392C257.588 162.488 257.337 162.514 257.094 162.467C256.851 162.42 256.628 162.302 256.453 162.128C256.277 161.954 256.158 161.731 256.109 161.489C256.06 161.247 256.084 160.995 256.178 160.767C256.272 160.538 256.432 160.343 256.637 160.206C256.843 160.068 257.084 159.995 257.331 159.995C257.495 159.993 257.657 160.025 257.808 160.086C257.96 160.148 258.097 160.239 258.213 160.354C258.329 160.469 258.421 160.606 258.484 160.757C258.547 160.908 258.579 161.069 258.579 161.233Z" fill="#EBEBEB"/>
<path d="M193.896 92.2993C193.896 92.546 193.823 92.7872 193.686 92.9924C193.549 93.1975 193.354 93.3575 193.126 93.4519C192.898 93.5463 192.647 93.571 192.405 93.5229C192.163 93.4747 191.941 93.3559 191.766 93.1814C191.592 93.007 191.473 92.7847 191.425 92.5427C191.377 92.3007 191.401 92.0498 191.496 91.8219C191.59 91.5939 191.75 91.3991 191.955 91.262C192.16 91.1249 192.402 91.0518 192.648 91.0518C192.979 91.0542 193.294 91.1864 193.528 91.4199C193.761 91.6533 193.894 91.9692 193.896 92.2993Z" fill="#F5F5F5"/>
<path d="M195.872 396.346C199.577 395.471 201.873 391.758 200.998 388.052C200.123 384.347 196.41 382.051 192.704 382.926C188.999 383.801 186.703 387.514 187.578 391.22C188.453 394.926 192.166 397.221 195.872 396.346Z" fill="#F0F0F0"/>
<path d="M191.916 385.603C190.504 385.6 189.127 386.046 187.986 386.878C187.403 388.216 187.26 389.703 187.577 391.127C187.895 392.551 188.656 393.837 189.752 394.801C190.847 395.764 192.221 396.354 193.674 396.486C195.126 396.618 196.584 396.286 197.835 395.536C198.389 394.511 198.667 393.36 198.643 392.196C198.618 391.031 198.292 389.893 197.695 388.892C197.098 387.892 196.252 387.064 195.239 386.489C194.226 385.914 193.081 385.611 191.916 385.612V385.603Z" fill="#E6E6E6"/>
<path d="M138.524 269.807H81.4471V244.04L138.524 176.185H165.839V245.503H179.993V269.807H165.839V290.893H138.524V269.807ZM138.524 245.503V210.009L108.358 245.503H138.524Z" fill="#FFC627"/>
<path d="M189.759 234.04C189.759 212.598 193.617 197.59 201.334 189.016C209.05 180.443 220.81 176.16 236.612 176.166C244.197 176.166 250.429 177.104 255.306 178.98C259.737 180.576 263.795 183.063 267.228 186.287C270.122 189.05 272.574 192.242 274.498 195.751C276.401 199.415 277.835 203.304 278.766 207.326C280.886 215.919 281.945 224.74 281.917 233.59C281.917 254.051 278.456 269.025 271.534 278.511C264.611 287.997 252.689 292.744 235.768 292.75C226.275 292.75 218.605 291.236 212.759 288.21C206.865 285.134 201.9 280.539 198.379 274.9C195.659 270.747 193.542 265.066 192.029 257.856C190.458 250.016 189.697 242.036 189.759 234.04ZM220.844 234.115C220.844 248.498 222.11 258.306 224.643 263.54C227.176 268.775 230.856 271.404 235.683 271.429C237.215 271.446 238.735 271.159 240.156 270.584C241.576 270.009 242.868 269.158 243.956 268.08C246.295 265.848 248.015 262.321 249.115 257.5C250.216 252.678 250.766 245.174 250.766 234.988C250.766 220.017 249.497 209.953 246.958 204.794C244.419 199.635 240.611 197.058 235.533 197.064C230.355 197.064 226.603 199.694 224.277 204.953C221.951 210.212 220.807 219.933 220.844 234.115Z" fill="#FFC627"/>
<path d="M348.694 269.806H291.616V244.04L348.694 176.185H376.008V245.503H390.21V269.806H376.008V290.893H348.694V269.806ZM348.694 245.503V210.009L318.537 245.503H348.694Z" fill="#FFC627"/>
<g opacity="0.3">
<path opacity="0.3" d="M188.538 136.591C188.538 136.939 188.435 137.278 188.242 137.567C188.049 137.856 187.774 138.08 187.453 138.213C187.132 138.345 186.779 138.38 186.438 138.311C186.098 138.243 185.785 138.075 185.54 137.828C185.296 137.582 185.129 137.269 185.063 136.928C184.996 136.587 185.032 136.234 185.166 135.914C185.3 135.593 185.527 135.32 185.816 135.128C186.106 134.937 186.446 134.836 186.793 134.837C187.023 134.837 187.251 134.883 187.463 134.971C187.676 135.059 187.868 135.189 188.03 135.352C188.193 135.515 188.321 135.708 188.408 135.921C188.495 136.134 188.539 136.362 188.538 136.591Z" fill="#FFC627"/>
<path opacity="0.3" d="M68.4467 203.968C69.1305 203.968 69.6848 203.414 69.6848 202.73C69.6848 202.046 69.1305 201.492 68.4467 201.492C67.7628 201.492 67.2085 202.046 67.2085 202.73C67.2085 203.414 67.7628 203.968 68.4467 203.968Z" fill="#FFC627"/>
<path opacity="0.3" d="M273.005 384.786C273.985 384.786 274.778 383.993 274.778 383.014C274.778 382.035 273.985 381.241 273.005 381.241C272.026 381.241 271.233 382.035 271.233 383.014C271.233 383.993 272.026 384.786 273.005 384.786Z" fill="#FFC627"/>
<path opacity="0.3" d="M315.637 312.654C316.321 312.654 316.875 312.1 316.875 311.416C316.875 310.732 316.321 310.178 315.637 310.178C314.953 310.178 314.399 310.732 314.399 311.416C314.399 312.1 314.953 312.654 315.637 312.654Z" fill="#FFC627"/>
<path opacity="0.3" d="M397.873 89.6915C397.873 89.9364 397.801 90.1758 397.665 90.3794C397.529 90.583 397.335 90.7417 397.109 90.8354C396.883 90.9291 396.634 90.9537 396.394 90.9059C396.153 90.8581 395.933 90.7402 395.76 90.567C395.586 90.3939 395.469 90.1733 395.421 89.9331C395.373 89.6929 395.398 89.4439 395.491 89.2177C395.585 88.9915 395.744 88.7981 395.947 88.662C396.151 88.526 396.39 88.4534 396.635 88.4534C396.964 88.4534 397.278 88.5838 397.511 88.816C397.743 89.0482 397.873 89.3631 397.873 89.6915Z" fill="#FFC627"/>
<path opacity="0.3" d="M162.041 64.722C162.041 64.9669 161.968 65.2063 161.832 65.4099C161.696 65.6135 161.503 65.7722 161.277 65.8659C161.05 65.9597 160.801 65.9842 160.561 65.9364C160.321 65.8886 160.101 65.7707 159.927 65.5976C159.754 65.4244 159.636 65.2038 159.588 64.9636C159.541 64.7234 159.565 64.4745 159.659 64.2482C159.753 64.022 159.911 63.8286 160.115 63.6926C160.319 63.5565 160.558 63.4839 160.803 63.4839C161.13 63.4863 161.444 63.6176 161.676 63.8492C161.907 64.0809 162.039 64.3944 162.041 64.722Z" fill="#FFC627"/>
<path opacity="0.3" d="M260.484 129.688C261.168 129.688 261.722 129.134 261.722 128.45C261.722 127.766 261.168 127.212 260.484 127.212C259.8 127.212 259.246 127.766 259.246 128.45C259.246 129.134 259.8 129.688 260.484 129.688Z" fill="#FFC627"/>
</g>
<path d="M132.474 129.697C143.825 129.697 153.026 120.496 153.026 109.146C153.026 97.7955 143.825 88.5942 132.474 88.5942C121.124 88.5942 111.923 97.7955 111.923 109.146C111.923 120.496 121.124 129.697 132.474 129.697Z" fill="#FFC627"/>
<path opacity="0.7" d="M132.474 129.697C143.825 129.697 153.026 120.496 153.026 109.146C153.026 97.7955 143.825 88.5942 132.474 88.5942C121.124 88.5942 111.923 97.7955 111.923 109.146C111.923 120.496 121.124 129.697 132.474 129.697Z" fill="white"/>
<path opacity="0.2" d="M125.392 93.6405C122.593 93.6319 119.822 94.1969 117.25 95.3007C114.089 98.775 112.213 103.227 111.934 107.916C111.655 112.604 112.989 117.248 115.716 121.072C118.442 124.897 122.396 127.673 126.919 128.939C131.443 130.204 136.263 129.883 140.578 128.028C143.254 125.079 145.016 121.417 145.65 117.487C146.284 113.556 145.764 109.526 144.152 105.885C142.54 102.245 139.905 99.1509 136.569 96.9789C133.232 94.8069 129.336 93.6504 125.355 93.6499L125.392 93.6405Z" fill="#FFC627"/>
<path opacity="0.2" d="M123.347 99.0716C123.347 99.4426 123.237 99.8053 123.031 100.114C122.825 100.422 122.532 100.663 122.189 100.805C121.846 100.947 121.469 100.984 121.105 100.912C120.741 100.839 120.407 100.66 120.145 100.398C119.882 100.136 119.704 99.8014 119.631 99.4375C119.559 99.0736 119.596 98.6964 119.738 98.3536C119.88 98.0108 120.12 97.7179 120.429 97.5117C120.737 97.3056 121.1 97.1956 121.471 97.1956C121.969 97.1956 122.446 97.3932 122.798 97.745C123.15 98.0968 123.347 98.574 123.347 99.0716Z" fill="#FFC627"/>
<path opacity="0.2" d="M145.447 97.1956C145.447 97.5666 145.337 97.9293 145.131 98.2378C144.925 98.5463 144.632 98.7868 144.289 98.9288C143.946 99.0708 143.569 99.1079 143.205 99.0355C142.841 98.9632 142.507 98.7845 142.245 98.5221C141.982 98.2597 141.804 97.9255 141.731 97.5616C141.659 97.1977 141.696 96.8205 141.838 96.4777C141.98 96.1349 142.22 95.8419 142.529 95.6357C142.837 95.4296 143.2 95.3196 143.571 95.3196C144.069 95.3196 144.546 95.5172 144.898 95.869C145.249 96.2209 145.447 96.698 145.447 97.1956Z" fill="#FFC627"/>
<path opacity="0.2" d="M141.695 110.59C141.695 111.199 141.514 111.794 141.176 112.3C140.838 112.806 140.358 113.2 139.796 113.433C139.233 113.666 138.615 113.727 138.018 113.608C137.421 113.489 136.873 113.196 136.443 112.766C136.012 112.336 135.719 111.787 135.601 111.191C135.482 110.594 135.543 109.975 135.776 109.413C136.009 108.851 136.403 108.37 136.909 108.032C137.415 107.694 138.01 107.514 138.618 107.514C139.434 107.514 140.217 107.838 140.794 108.415C141.371 108.992 141.695 109.774 141.695 110.59Z" fill="#FFC627"/>
<path opacity="0.2" d="M131.922 119.361C131.922 120.173 131.681 120.968 131.229 121.643C130.778 122.319 130.136 122.845 129.386 123.156C128.635 123.467 127.809 123.549 127.012 123.39C126.215 123.232 125.483 122.84 124.908 122.266C124.334 121.691 123.942 120.959 123.784 120.162C123.625 119.365 123.707 118.539 124.018 117.788C124.329 117.038 124.855 116.396 125.531 115.945C126.206 115.493 127.001 115.252 127.813 115.252C128.903 115.252 129.948 115.685 130.718 116.456C131.489 117.226 131.922 118.271 131.922 119.361Z" fill="#FFC627"/>
<path d="M376.044 357.046C378.333 347.35 372.328 337.636 362.632 335.347C352.937 333.059 343.222 339.064 340.933 348.759C338.645 358.455 344.65 368.17 354.345 370.458C364.041 372.746 373.756 366.742 376.044 357.046Z" fill="#FFC627"/>
<path opacity="0.3" d="M376.044 357.046C378.333 347.35 372.328 337.636 362.632 335.347C352.937 333.059 343.222 339.064 340.933 348.759C338.645 358.455 344.65 368.17 354.345 370.458C364.041 372.746 373.756 366.742 376.044 357.046Z" fill="white"/>
<path opacity="0.4" d="M369.882 338.937C365.884 337.73 361.59 337.949 357.735 339.556C353.88 341.164 350.703 344.06 348.746 347.75C346.789 351.44 346.174 355.695 347.006 359.788C347.838 363.881 350.066 367.558 353.308 370.191C354.99 370.702 356.738 370.961 358.495 370.96C362.219 370.959 365.851 369.806 368.893 367.659C371.936 365.511 374.239 362.475 375.486 358.966C376.734 355.457 376.865 351.649 375.862 348.063C374.858 344.476 372.77 341.289 369.882 338.937Z" fill="#FFC627"/>
<path d="M341.273 358.316C322.015 367.377 336.376 374.365 363.513 364.61C388.642 355.577 398.219 344.19 375.707 347.726C376.917 352.463 345.447 364.723 341.273 358.316Z" fill="#FFC627"/>
<path opacity="0.2" d="M369.666 176.184C344.443 193.228 311.792 215.74 302.777 269.806H300.854C309.625 216.34 341.085 193.293 366.318 176.184H369.666Z" fill="black"/>
<path d="M239.191 345.437C223.245 345.437 207.477 338.243 199.795 326.499C195.058 319.239 189.552 304.034 205.948 283.745L207.402 284.927C195.809 299.278 193.67 313.676 201.371 325.476C210.751 339.828 232.878 347.05 251.77 341.91C271.121 336.648 282.864 319.82 283.999 295.742C287.873 213.376 331.631 188.003 363.579 169.478C383.437 157.968 397.779 149.658 394.627 132.108C394.186 129.678 393.22 127.999 391.654 126.968C387.573 124.275 379.6 126.142 370.37 128.29C352.258 132.511 327.457 138.289 312.683 113.16L314.306 112.222C328.376 136.169 351.423 130.795 369.948 126.48C379.6 124.238 387.93 122.296 392.685 125.42C394.702 126.742 395.94 128.834 396.437 131.798C399.824 150.633 384.243 159.676 364.499 171.119C332.916 189.429 289.674 214.502 285.847 295.873C284.665 320.824 272.415 338.28 252.229 343.767C247.977 344.9 243.592 345.461 239.191 345.437Z" fill="#FFC627"/>
<path opacity="0.2" d="M239.191 345.437C223.245 345.437 207.477 338.243 199.795 326.499C195.058 319.239 189.552 304.034 205.948 283.745L207.402 284.927C195.809 299.278 193.67 313.676 201.371 325.476C210.751 339.828 232.878 347.05 251.77 341.91C271.121 336.648 282.864 319.82 283.999 295.742C287.873 213.376 331.631 188.003 363.579 169.478C383.437 157.968 397.779 149.658 394.627 132.108C394.186 129.678 393.22 127.999 391.654 126.968C387.573 124.275 379.6 126.142 370.37 128.29C352.258 132.511 327.457 138.289 312.683 113.16L314.306 112.222C328.376 136.169 351.423 130.795 369.948 126.48C379.6 124.238 387.93 122.296 392.685 125.42C394.702 126.742 395.94 128.834 396.437 131.798C399.824 150.633 384.243 159.676 364.499 171.119C332.916 189.429 289.674 214.502 285.847 295.873C284.665 320.824 272.415 338.28 252.229 343.767C247.977 344.9 243.592 345.461 239.191 345.437Z" fill="white"/>
<path d="M293.371 90.9858C297.693 91.0108 301.987 91.6843 306.109 92.9838C306.109 92.9838 316.427 110.59 317.646 114.623C317.215 118.601 310.508 125.12 310.508 125.12L293.371 90.9858Z" fill="#FFC627"/>
<path opacity="0.3" d="M293.371 90.9858C297.693 91.0108 301.987 91.6843 306.109 92.9838C306.109 92.9838 316.427 110.59 317.646 114.623C317.215 118.601 310.508 125.12 310.508 125.12L293.371 90.9858Z" fill="white"/>
<path d="M323.93 176.466C319.957 171.607 316.333 166.473 313.087 161.101C312.299 159.744 311.552 158.362 310.845 156.955C310.442 156.158 310.057 155.361 309.682 154.554C309.189 153.769 308.808 152.92 308.547 152.031C307.421 140.146 311.492 131.395 307.609 121.855L292.151 127.896C292.151 127.896 293.464 144.893 296.465 155.098C298.341 161.411 302.544 166.87 306.605 171.926C307.872 173.502 309.091 175.124 310.357 176.71C311.624 178.295 312.899 179.58 314.109 181.071C315.938 183.332 316.539 185.499 315.16 188.163L314.925 188.585C314.531 189.279 316.37 190.067 317.533 188.585C319.409 186.165 319.146 186.315 320.778 184.251C321.773 183.004 322.908 181.644 323.893 180.499C324.368 179.937 324.631 179.226 324.638 178.489C324.645 177.753 324.395 177.037 323.93 176.466Z" fill="#FFC627"/>
<path opacity="0.7" d="M323.93 176.466C319.957 171.607 316.333 166.473 313.087 161.101C312.299 159.744 311.552 158.362 310.845 156.955C310.442 156.158 310.057 155.361 309.682 154.554C309.189 153.769 308.808 152.92 308.547 152.031C307.421 140.146 311.492 131.395 307.609 121.855L292.151 127.896C292.151 127.896 293.464 144.893 296.465 155.098C298.341 161.411 302.544 166.87 306.605 171.926C307.872 173.502 309.091 175.124 310.357 176.71C311.624 178.295 312.899 179.58 314.109 181.071C315.938 183.332 316.539 185.499 315.16 188.163L314.925 188.585C314.531 189.279 316.37 190.067 317.533 188.585C319.409 186.165 319.146 186.315 320.778 184.251C321.773 183.004 322.908 181.644 323.893 180.499C324.368 179.937 324.631 179.226 324.638 178.489C324.645 177.753 324.395 177.037 323.93 176.466Z" fill="white"/>
<path opacity="0.3" d="M320.15 171.579C317.697 174.208 314.974 176.573 312.027 178.633C312.43 179.083 312.824 179.571 313.227 180.002C316.178 178.008 318.858 175.641 321.2 172.958L320.15 171.579Z" fill="#FFC627"/>
<path opacity="0.3" d="M323.931 176.466L323.818 176.334C323.096 177.162 322.677 178.211 322.627 179.308C322.567 180.061 322.689 180.817 322.983 181.512L323.874 180.452C324.34 179.895 324.6 179.195 324.61 178.469C324.621 177.743 324.381 177.036 323.931 176.466Z" fill="#FFC627"/>
<path d="M289.693 102.242C288.017 104.751 286.007 107.02 283.718 108.986C282.449 110.08 281.058 111.024 279.572 111.8C278.792 112.2 277.983 112.542 277.152 112.823L276.514 113.029L276.308 113.085L275.867 113.207C275.596 113.272 275.32 113.316 275.042 113.339C274.25 113.399 273.454 113.326 272.687 113.123C271.72 112.848 270.793 112.448 269.929 111.932C269.235 111.526 268.562 111.084 267.913 110.609C266.74 109.737 265.619 108.797 264.555 107.795C262.503 105.851 260.62 103.736 258.927 101.473C258.601 101.032 258.439 100.491 258.469 99.9435C258.499 99.396 258.719 98.8761 259.092 98.4737C259.464 98.0712 259.965 97.8114 260.509 97.739C261.052 97.6666 261.604 97.7863 262.069 98.0773H262.144C264.358 99.4843 266.59 100.966 268.766 102.289C269.873 102.936 270.943 103.593 272.002 104.099C272.486 104.353 272.984 104.578 273.494 104.775C273.811 104.915 274.151 104.997 274.498 105.018C274.554 105.018 274.498 104.953 274.15 104.962C274.041 104.956 273.932 104.956 273.822 104.962L273.616 105.009L273.925 104.85C274.342 104.625 274.746 104.378 275.135 104.109C275.975 103.517 276.759 102.851 277.48 102.12C279.119 100.403 280.654 98.5892 282.077 96.689C282.856 95.817 283.933 95.2676 285.097 95.1488C286.261 95.03 287.427 95.3502 288.366 96.0468C289.306 96.7433 289.951 97.7658 290.176 98.9137C290.401 100.062 290.188 101.252 289.581 102.251L289.693 102.242Z" fill="#FFC627"/>
<path opacity="0.7" d="M289.693 102.242C288.017 104.751 286.007 107.02 283.718 108.986C282.449 110.08 281.058 111.024 279.572 111.8C278.792 112.2 277.983 112.542 277.152 112.823L276.514 113.029L276.308 113.085L275.867 113.207C275.596 113.272 275.32 113.316 275.042 113.339C274.25 113.399 273.454 113.326 272.687 113.123C271.72 112.848 270.793 112.448 269.929 111.932C269.235 111.526 268.562 111.084 267.913 110.609C266.74 109.737 265.619 108.797 264.555 107.795C262.503 105.851 260.62 103.736 258.927 101.473C258.601 101.032 258.439 100.491 258.469 99.9435C258.499 99.396 258.719 98.8761 259.092 98.4737C259.464 98.0712 259.965 97.8114 260.509 97.739C261.052 97.6666 261.604 97.7863 262.069 98.0773H262.144C264.358 99.4843 266.59 100.966 268.766 102.289C269.873 102.936 270.943 103.593 272.002 104.099C272.486 104.353 272.984 104.578 273.494 104.775C273.811 104.915 274.151 104.997 274.498 105.018C274.554 105.018 274.498 104.953 274.15 104.962C274.041 104.956 273.932 104.956 273.822 104.962L273.616 105.009L273.925 104.85C274.342 104.625 274.746 104.378 275.135 104.109C275.975 103.517 276.759 102.851 277.48 102.12C279.119 100.403 280.654 98.5892 282.077 96.689C282.856 95.817 283.933 95.2676 285.097 95.1488C286.261 95.03 287.427 95.3502 288.366 96.0468C289.306 96.7433 289.951 97.7658 290.176 98.9137C290.401 100.062 290.188 101.252 289.581 102.251L289.693 102.242Z" fill="white"/>
<path d="M255.41 96.0698L256.507 97.9458C256.507 97.9458 257.342 100.403 259.021 100.854L263.58 99.3809L263.345 98.9964C262.764 98.1146 262.829 96.3981 263.026 94.9723C263.223 93.5466 262.492 93.4997 261.948 93.8561C261.562 94.2996 261.291 94.8311 261.16 95.4038C260.936 95.0941 260.688 94.8024 260.419 94.5315L259.03 93.1432C258.739 92.8586 258.351 92.6946 257.944 92.6841C257.537 92.6737 257.141 92.8176 256.836 93.0869L255.71 94.0906C255.443 94.3376 255.268 94.668 255.213 95.0276C255.159 95.3873 255.228 95.7547 255.41 96.0698Z" fill="#FFC627"/>
<path opacity="0.7" d="M255.41 96.0698L256.507 97.9458C256.507 97.9458 257.342 100.403 259.021 100.854L263.58 99.3809L263.345 98.9964C262.764 98.1146 262.829 96.3981 263.026 94.9723C263.223 93.5466 262.492 93.4997 261.948 93.8561C261.562 94.2996 261.291 94.8311 261.16 95.4038C260.936 95.0941 260.688 94.8024 260.419 94.5315L259.03 93.1432C258.739 92.8586 258.351 92.6946 257.944 92.6841C257.537 92.6737 257.141 92.8176 256.836 93.0869L255.71 94.0906C255.443 94.3376 255.268 94.668 255.213 95.0276C255.159 95.3873 255.228 95.7547 255.41 96.0698Z" fill="white"/>
<path d="M297.975 89.3163C292.919 90.6566 288.075 92.6995 283.586 95.3852C282.886 95.8235 282.337 96.4654 282.011 97.2249C281.686 97.9843 281.601 98.825 281.767 99.6343C283.577 108.489 287.695 120.345 292.141 127.896L312.88 119.314C313.021 115.655 307.984 103.818 302.853 92.3742C301.934 90.32 300.161 88.7911 297.975 89.3163Z" fill="#FFC627"/>
<path opacity="0.8" d="M297.975 89.3163C292.919 90.6566 288.075 92.6995 283.586 95.3852C282.886 95.8235 282.337 96.4654 282.011 97.2249C281.686 97.9843 281.601 98.825 281.767 99.6343C283.577 108.489 287.695 120.345 292.141 127.896L312.88 119.314C313.021 115.655 307.984 103.818 302.853 92.3742C301.934 90.32 300.161 88.7911 297.975 89.3163Z" fill="white"/>
<path opacity="0.3" d="M306.07 99.625L301.952 98.2461C302.89 100.657 306.201 103.705 308.518 105.497C307.768 103.621 306.933 101.651 306.07 99.625Z" fill="#FFC627"/>
<path d="M296.616 80.0302C294.899 76.7659 291.194 75.1244 286.748 75.4902C282.996 75.8092 279.675 79.6362 280.069 81.6998C280.463 83.7634 283.615 84.6451 284.215 85.358L281.617 87.234C281.309 87.4562 281.049 87.7383 280.854 88.0634C280.658 88.3886 280.53 88.75 280.477 89.1259C280.424 89.5019 280.448 89.8846 280.548 90.251C280.647 90.6174 280.819 90.9599 281.054 91.258C282.152 92.6463 283.596 94.072 284.431 95.1226C291.616 94.935 296.934 92.196 298.857 89.5602C298.135 86.221 298.285 83.2756 296.616 80.0302Z" fill="#FFC627"/>
<path opacity="0.8" d="M296.616 80.0302C294.899 76.7659 291.194 75.1244 286.748 75.4902C282.996 75.8092 279.675 79.6362 280.069 81.6998C280.463 83.7634 283.615 84.6451 284.215 85.358L281.617 87.234C281.309 87.4562 281.049 87.7383 280.854 88.0634C280.658 88.3886 280.53 88.75 280.477 89.1259C280.424 89.5019 280.448 89.8846 280.548 90.251C280.647 90.6174 280.819 90.9599 281.054 91.258C282.152 92.6463 283.596 94.072 284.431 95.1226C291.616 94.935 296.934 92.196 298.857 89.5602C298.135 86.221 298.285 83.2756 296.616 80.0302Z" fill="white"/>
<path d="M293.089 82.0562C293.599 83.3644 293.709 84.7944 293.407 86.1655C293.104 87.5366 292.402 88.7872 291.389 89.7593C290.376 90.7314 289.097 91.3813 287.715 91.6269C286.333 91.8725 284.908 91.7027 283.622 91.1391C282.336 90.5754 281.246 89.6431 280.49 88.4601C279.734 87.2771 279.345 85.8964 279.374 84.4926C279.402 83.0889 279.846 81.725 280.649 80.5734C281.452 79.4218 282.579 78.5342 283.887 78.0228C285.642 77.339 287.597 77.3797 289.322 78.1359C291.047 78.8922 292.402 80.3021 293.089 82.0562Z" fill="#263238"/>
<path d="M353.993 166.589C353.89 163.503 353.75 163.775 353.665 161.176C353.609 159.582 353.599 157.809 353.59 156.28C353.587 155.554 353.333 154.851 352.872 154.291C352.41 153.73 351.769 153.346 351.058 153.203C349.819 152.95 348.572 152.716 347.306 152.453C345.683 152.106 344.079 151.731 342.494 151.271C341.255 150.915 340.036 150.521 338.826 150.08C337.616 149.639 336.256 149.142 334.999 148.56C333.517 147.932 332.054 147.257 330.609 146.553C328.986 145.784 327.382 144.977 325.778 144.161C319.606 133.946 319.475 127.211 312.853 119.313L298.633 125.748C298.633 125.748 309.082 144.283 316.192 152.143C320.291 156.665 326.716 158.709 332.448 160.192C336.584 161.251 340.777 162.068 344.97 162.846C346.602 163.146 348.375 163.259 349.782 164.234C350.823 165.032 351.537 166.183 351.789 167.47C351.852 167.733 351.908 167.996 351.958 168.258C352.136 169.046 354.059 168.446 353.993 166.589Z" fill="#FFC627"/>
<path opacity="0.8" d="M353.993 166.589C353.89 163.503 353.75 163.775 353.665 161.176C353.609 159.582 353.599 157.809 353.59 156.28C353.587 155.554 353.333 154.851 352.872 154.291C352.41 153.73 351.769 153.346 351.058 153.203C349.819 152.95 348.572 152.716 347.306 152.453C345.683 152.106 344.079 151.731 342.494 151.271C341.255 150.915 340.036 150.521 338.826 150.08C337.616 149.639 336.256 149.142 334.999 148.56C333.517 147.932 332.054 147.257 330.609 146.553C328.986 145.784 327.382 144.977 325.778 144.161C319.606 133.946 319.475 127.211 312.853 119.313L298.633 125.748C298.633 125.748 309.082 144.283 316.192 152.143C320.291 156.665 326.716 158.709 332.448 160.192C336.584 161.251 340.777 162.068 344.97 162.846C346.602 163.146 348.375 163.259 349.782 164.234C350.823 165.032 351.537 166.183 351.789 167.47C351.852 167.733 351.908 167.996 351.958 168.258C352.136 169.046 354.059 168.446 353.993 166.589Z" fill="white"/>
<path opacity="0.3" d="M346.78 152.331C346.217 152.209 345.654 152.087 345.082 151.947C345.129 155.192 343.609 160.782 343.056 162.48L344.838 162.818C346.006 159.439 346.66 155.904 346.78 152.331Z" fill="#FFC627"/>
<path opacity="0.3" d="M353.627 156.28C353.624 155.556 353.372 154.854 352.912 154.293C352.453 153.733 351.814 153.348 351.104 153.204L350.166 153.025C350.316 154.092 350.862 155.063 351.695 155.746C352.23 156.241 352.872 156.606 353.571 156.815C353.627 156.646 353.627 156.458 353.627 156.28Z" fill="#FFC627"/>
<path d="M291.767 82.1124C292.142 83.5382 290.547 85.0296 289.281 83.8008C288.099 82.5336 286.806 81.3752 285.417 80.3396C284.113 79.5235 285.848 78.0978 287.902 78.6512C288.779 78.8714 289.589 79.3016 290.262 79.9046C290.935 80.5076 291.452 81.2653 291.767 82.1124Z" fill="white"/>
<path d="M291.869 127.437C291.212 127.681 292.413 128.806 292.413 128.806C292.413 128.806 305.545 124.313 313.518 119.689C313.537 119.409 313.49 119.128 313.379 118.871C313.268 118.613 313.097 118.385 312.88 118.207C306.057 121.678 299.042 124.76 291.869 127.437Z" fill="#FFC627"/>
<path opacity="0.5" d="M291.869 127.437C291.212 127.681 292.413 128.806 292.413 128.806C292.413 128.806 305.545 124.313 313.518 119.689C313.537 119.409 313.49 119.128 313.379 118.871C313.268 118.613 313.097 118.385 312.88 118.207C306.057 121.678 299.042 124.76 291.869 127.437Z" fill="white"/>
<path d="M301.531 88.6972C304.12 90.0104 306.549 91.3893 309.035 92.9182C310.245 93.6874 311.445 94.4659 312.637 95.3101C313.828 96.1543 315.01 97.0173 316.201 97.9928L316.642 98.3586L317.195 98.8651C317.525 99.1602 317.838 99.4733 318.133 99.8031C318.433 100.131 318.687 100.45 318.931 100.741C319.174 101.032 319.437 101.379 319.653 101.679C320.527 102.885 321.335 104.138 322.073 105.431C323.527 107.94 324.781 110.559 325.825 113.263C326.018 113.775 326.028 114.337 325.853 114.854C325.678 115.372 325.33 115.813 324.867 116.103C324.404 116.392 323.854 116.512 323.312 116.443C322.771 116.373 322.27 116.118 321.895 115.721L321.848 115.665C319.972 113.667 318.161 111.566 316.342 109.605C314.522 107.645 312.674 105.656 311.145 104.784C309.016 103.461 306.643 102.139 304.288 100.844L297.197 96.9047C296.098 96.3226 295.274 95.3275 294.908 94.1384C294.542 92.9492 294.664 91.6634 295.246 90.5638C295.828 89.4643 296.823 88.641 298.012 88.2751C299.202 87.9092 300.487 88.0307 301.587 88.6128L301.531 88.6972Z" fill="#FFC627"/>
<path opacity="0.8" d="M301.531 88.6972C304.12 90.0104 306.549 91.3893 309.035 92.9182C310.245 93.6874 311.445 94.4659 312.637 95.3101C313.828 96.1543 315.01 97.0173 316.201 97.9928L316.642 98.3586L317.195 98.8651C317.525 99.1602 317.838 99.4733 318.133 99.8031C318.433 100.131 318.687 100.45 318.931 100.741C319.174 101.032 319.437 101.379 319.653 101.679C320.527 102.885 321.335 104.138 322.073 105.431C323.527 107.94 324.781 110.559 325.825 113.263C326.018 113.775 326.028 114.337 325.853 114.854C325.678 115.372 325.33 115.813 324.867 116.103C324.404 116.392 323.854 116.512 323.312 116.443C322.771 116.373 322.27 116.118 321.895 115.721L321.848 115.665C319.972 113.667 318.161 111.566 316.342 109.605C314.522 107.645 312.674 105.656 311.145 104.784C309.016 103.461 306.643 102.139 304.288 100.844L297.197 96.9047C296.098 96.3226 295.274 95.3275 294.908 94.1384C294.542 92.9492 294.664 91.6634 295.246 90.5638C295.828 89.4643 296.823 88.641 298.012 88.2751C299.202 87.9092 300.487 88.0307 301.587 88.6128L301.531 88.6972Z" fill="white"/>
<path d="M328.049 117.944L327.252 115.946C327.252 115.946 326.811 113.395 325.226 112.682L320.536 113.423L320.695 113.836C321.127 114.774 320.798 116.49 320.376 117.86C319.954 119.229 320.667 119.407 321.267 119.135C321.605 118.985 321.933 118.376 322.29 117.728C322.464 118.054 322.662 118.368 322.881 118.666L324.034 120.252C324.275 120.58 324.632 120.805 325.032 120.882C325.432 120.958 325.846 120.881 326.192 120.664L327.467 119.848C327.766 119.644 327.986 119.344 328.092 118.998C328.198 118.652 328.182 118.28 328.049 117.944Z" fill="#FFC627"/>
<path opacity="0.8" d="M328.049 117.944L327.252 115.946C327.252 115.946 326.811 113.395 325.226 112.682L320.536 113.423L320.695 113.836C321.127 114.774 320.798 116.49 320.376 117.86C319.954 119.229 320.667 119.407 321.267 119.135C321.605 118.985 321.933 118.376 322.29 117.728C322.464 118.054 322.662 118.368 322.881 118.666L324.034 120.252C324.275 120.58 324.632 120.805 325.032 120.882C325.432 120.958 325.846 120.881 326.192 120.664L327.467 119.848C327.766 119.644 327.986 119.344 328.092 118.998C328.198 118.652 328.182 118.28 328.049 117.944Z" fill="white"/>
<path opacity="0.3" d="M297.573 99.4844L296.429 99.5782L289.403 116.537C289.787 116.565 290.173 116.533 290.547 116.443C290.547 116.443 299.702 113.029 302.469 111.753C300.612 107.917 297.573 99.4844 297.573 99.4844Z" fill="#FFC627"/>
<path d="M284.75 103.93C285.603 108.364 287.188 112.624 289.44 116.537C292.873 115.355 298.594 113.123 301.371 111.847C299.505 107.847 297.848 103.751 296.409 99.5781C293.473 99.7751 287.029 102.242 284.75 103.93Z" fill="white"/>
<path opacity="0.3" d="M291.719 107.598C291.582 108.057 291.312 108.464 290.943 108.769C290.574 109.075 290.123 109.263 289.647 109.312C289.171 109.361 288.691 109.267 288.268 109.043C287.845 108.819 287.498 108.474 287.27 108.053C287.043 107.631 286.946 107.152 286.992 106.675C287.037 106.199 287.223 105.746 287.525 105.375C287.828 105.004 288.234 104.731 288.691 104.591C289.149 104.451 289.638 104.449 290.097 104.587C290.711 104.771 291.227 105.192 291.531 105.757C291.835 106.321 291.903 106.983 291.719 107.598Z" fill="#FFC627"/>
<path opacity="0.6" d="M293.51 104.371C293.474 104.528 293.391 104.67 293.272 104.778C293.153 104.887 293.005 104.957 292.846 104.979C292.686 105.002 292.524 104.976 292.38 104.904C292.236 104.833 292.117 104.72 292.038 104.579C291.96 104.439 291.925 104.278 291.94 104.118C291.954 103.958 292.017 103.806 292.119 103.682C292.222 103.558 292.359 103.468 292.514 103.424C292.668 103.379 292.832 103.383 292.985 103.433C293.175 103.494 293.335 103.625 293.432 103.799C293.53 103.973 293.558 104.177 293.51 104.371Z" fill="#FFC627"/>
<path opacity="0.6" d="M295.611 103.555C295.589 103.664 295.545 103.767 295.481 103.858C295.416 103.948 295.334 104.024 295.239 104.081C295.144 104.138 295.037 104.175 294.927 104.188C294.817 104.202 294.705 104.192 294.599 104.16C294.493 104.128 294.394 104.074 294.31 104.002C294.226 103.929 294.158 103.84 294.11 103.74C294.062 103.64 294.036 103.531 294.033 103.42C294.03 103.309 294.05 103.198 294.092 103.095C294.122 102.996 294.171 102.904 294.237 102.824C294.303 102.744 294.384 102.677 294.475 102.628C294.567 102.58 294.667 102.549 294.77 102.539C294.873 102.529 294.977 102.54 295.077 102.57C295.277 102.631 295.446 102.768 295.546 102.953C295.646 103.137 295.67 103.354 295.611 103.555Z" fill="#FFC627"/>
<path opacity="0.5" d="M298.557 110.862L289.88 114.286L289.364 112.579L298.031 109.155L298.557 110.862Z" fill="#FFC627"/>
<path opacity="0.2" d="M250.689 241.225C250.669 246.687 250.142 252.135 249.113 257.5C248.006 262.321 246.287 265.848 243.954 268.08C242.868 269.159 241.578 270.01 240.159 270.585C238.74 271.16 237.221 271.447 235.691 271.429C230.869 271.429 227.189 268.799 224.65 263.54C224.204 262.596 223.825 261.621 223.515 260.623C218.153 265.228 213.161 270.246 208.582 275.631L203.602 281.503C206.282 284.22 209.375 286.496 212.766 288.247C218.606 291.268 226.273 292.781 235.766 292.787C237.435 292.787 239.049 292.74 240.615 292.647C246.358 284.149 251.11 275.022 254.779 265.445L268.708 229.125L250.689 241.225Z" fill="black"/>
<path d="M125.119 290.78L141.534 307.195L187.496 263.888C171.653 257.837 140.849 275.012 125.119 290.78Z" fill="#263238"/>
<path d="M182.367 347.998C177.123 342.745 165.952 331.583 165.952 331.583L209.259 285.621C215.272 301.426 198.097 332.258 182.367 347.998Z" fill="#263238"/>
<path d="M245.192 244.537L263.099 210.009L228.571 227.934C217.481 233.686 207.24 240.946 198.142 249.508L139.283 304.916L168.201 333.834L223.609 274.975C232.175 265.874 239.438 255.631 245.192 244.537Z" fill="#FFC627"/>
<path opacity="0.6" d="M245.192 244.537L263.099 210.009L228.571 227.934C217.481 233.686 207.24 240.946 198.142 249.508L139.283 304.916L168.201 333.834L223.609 274.975C232.175 265.874 239.438 255.631 245.192 244.537Z" fill="white"/>
<path d="M208.423 276.785C215.106 276.785 220.523 271.367 220.523 264.685C220.523 258.002 215.106 252.584 208.423 252.584C201.74 252.584 196.323 258.002 196.323 264.685C196.323 271.367 201.74 276.785 208.423 276.785Z" fill="white"/>
<path d="M208.423 272.461C212.717 272.461 216.199 268.979 216.199 264.685C216.199 260.39 212.717 256.909 208.423 256.909C204.128 256.909 200.647 260.39 200.647 264.685C200.647 268.979 204.128 272.461 208.423 272.461Z" fill="#FFC627"/>
<path opacity="0.3" d="M177.985 323.441L149.667 295.123L172.854 273.305L199.803 300.263L177.985 323.441Z" fill="#FFC627"/>
<path d="M131.526 316.688C110.327 318.404 103.302 331.977 100.9 350.015C99.6811 359.216 99.137 368.531 91.4173 373.915C90.9529 374.231 90.6032 374.688 90.4207 375.219C90.2381 375.75 90.2325 376.326 90.4047 376.86C90.5769 377.395 90.9176 377.859 91.3757 378.184C91.8339 378.509 92.3849 378.676 92.9462 378.661C121.405 377.77 134.678 363.841 136.347 358.025C135.909 361.065 135.126 364.046 134.012 366.908C133.807 367.413 133.767 367.97 133.897 368.499C134.028 369.028 134.322 369.503 134.737 369.855C135.153 370.208 135.67 370.42 136.213 370.462C136.756 370.503 137.299 370.373 137.764 370.088C145.746 365.088 155.764 355.877 156.43 340.935C150.558 332.615 131.526 316.688 131.526 316.688Z" fill="#FFC627"/>
<path opacity="0.2" d="M131.526 316.688C110.327 318.404 103.302 331.977 100.9 350.015C99.6811 359.216 99.137 368.531 91.4173 373.915C90.9529 374.231 90.6032 374.688 90.4207 375.219C90.2381 375.75 90.2325 376.326 90.4047 376.86C90.5769 377.395 90.9176 377.859 91.3757 378.184C91.8339 378.509 92.3849 378.676 92.9462 378.661C121.405 377.77 134.678 363.841 136.347 358.025C135.909 361.065 135.126 364.046 134.012 366.908C133.807 367.413 133.767 367.97 133.897 368.499C134.028 369.028 134.322 369.503 134.737 369.855C135.153 370.208 135.67 370.42 136.213 370.462C136.756 370.503 137.299 370.373 137.764 370.088C145.746 365.088 155.764 355.877 156.43 340.935C150.558 332.615 131.526 316.688 131.526 316.688Z" fill="white"/>
<path d="M159.722 347.341L125.766 313.386L143.851 309.474L163.633 329.257L159.722 347.341Z" fill="#FFC627"/>
</svg>
