<svg width="167" height="145" viewBox="0 0 167 145" fill="none" xmlns="http://www.w3.org/2000/svg">
<g clip-path="url(#clip0)">
<path d="M135.201 35.4953C130.405 42.4085 131.043 52.0068 137.204 58.1676C143.365 64.3294 152.933 64.9402 159.85 60.144L165.978 66.2723L146.954 85.2969L110.074 48.4174L129.099 29.3928L135.201 35.4953Z" fill="#FDC13A" stroke="#0D2240"/>
<path d="M87.1677 108.204C81.0129 102.043 71.4144 101.406 64.4953 106.202M87.1677 108.204L86.8139 108.557M87.1677 108.204C87.1676 108.204 87.1675 108.204 87.1675 108.204L86.8139 108.557M87.1677 108.204C93.3293 114.366 93.9401 123.933 89.1376 130.85M64.4953 106.202L86.8139 108.557M64.4953 106.202L58.3927 100.099L64.4953 106.202ZM86.8139 108.557C92.9005 114.644 93.4147 124.156 88.485 130.905M89.1376 130.85L88.8386 130.551L88.485 130.905M89.1376 130.85C89.0562 130.968 88.9733 131.084 88.8888 131.2L88.485 130.905M89.1376 130.85L88.485 130.905M94.9122 137.332L95.2658 137.686L95.6193 137.332L95.2658 136.978L94.9122 137.332ZM142.48 89.7639L142.834 90.1174L143.187 89.7639L142.834 89.4103L142.48 89.7639ZM105.961 52.5308L105.607 52.1772L105.254 52.5308L105.607 52.8844L105.961 52.5308Z" fill="#FDC13A" stroke="#0D2240"/>
<path d="M97.3933 84.2686C97.5282 84.1401 97.6632 84.0115 97.7918 83.8766C97.9267 83.748 97.9974 83.7673 98.1067 83.883C98.216 84.0051 98.3509 84.1337 98.473 84.2558C98.5952 84.3779 98.6273 84.3458 98.7044 84.2622L99.1029 83.8701C99.1929 83.7802 99.27 83.7737 99.3536 83.8701L99.7585 84.2815C99.8421 84.3715 99.8356 84.4357 99.7521 84.5129L99.3407 84.9114C99.2572 84.9949 99.2508 85.0528 99.3343 85.1363C99.3729 85.1684 99.4114 85.207 99.4436 85.2456C99.5271 85.3741 99.6942 85.4127 99.8228 85.342C100.208 85.2263 100.62 85.2327 101.005 85.3677C101.128 85.3998 101.179 85.3998 101.217 85.2584C101.41 84.5386 101.918 83.9473 102.599 83.6388C102.715 83.5938 102.811 83.4974 102.863 83.3817C103.043 83.0475 103.326 82.7904 103.679 82.649C103.878 82.559 104.09 82.4883 104.309 82.4369C104.431 82.4047 104.54 82.334 104.618 82.2248C104.939 81.7684 105.459 81.4856 106.019 81.4599C106.231 81.4342 106.43 81.3314 106.565 81.1643C106.899 80.8622 107.33 80.6822 107.78 80.6694C107.94 80.6694 108.011 80.5472 108.095 80.4444C108.287 80.213 108.525 80.0266 108.795 79.8981C109.084 79.7567 109.412 79.7181 109.727 79.7888C109.978 79.8467 110.241 79.7631 110.415 79.5703C110.794 79.2104 111.308 79.0433 111.822 79.0947C112.176 79.1397 112.427 79.461 112.382 79.8145C112.369 79.9045 112.343 79.9881 112.292 80.0652C111.932 80.5858 111.655 81.1578 111.469 81.762C111.405 81.9548 111.27 82.1219 111.083 82.2183C110.858 82.3726 110.601 82.469 110.331 82.4883C108.474 82.6682 106.668 83.1824 104.997 84.0051L104.669 84.1786C104.579 84.2108 104.534 84.3008 104.553 84.3907C104.579 84.4936 104.669 84.5643 104.772 84.5643L105.029 84.545C105.897 84.5 106.764 84.68 107.542 85.0656C107.728 85.1427 107.825 85.3548 107.748 85.5412C107.735 85.5734 107.715 85.6055 107.69 85.6376C107.613 85.7598 107.51 85.8626 107.381 85.9397C107.163 86.0554 106.996 86.2482 106.912 86.4796C106.835 86.711 106.591 86.846 106.353 86.7817C106.205 86.756 106.07 86.7046 105.948 86.621C104.984 85.9461 103.763 85.7533 102.638 86.0875C102.458 86.1133 102.297 86.2161 102.201 86.3639C102.047 86.576 102.092 86.8717 102.304 87.0259C102.374 87.0773 102.458 87.1095 102.542 87.1159C103.017 87.1416 103.486 87.2637 103.917 87.4694C104.007 87.508 104.09 87.5658 104.161 87.6365C104.36 87.855 104.348 88.1893 104.129 88.3885C104.103 88.4078 104.078 88.4271 104.052 88.4464C103.769 88.652 103.39 88.6649 103.094 88.4849C102.844 88.3757 102.567 88.3628 102.31 88.4335C101.706 88.607 101.352 89.2305 101.526 89.8346C101.532 89.8603 101.539 89.8796 101.545 89.9053C101.577 90.0082 101.616 90.1046 101.642 90.2074C101.725 90.5352 101.603 90.8759 101.327 91.0687C101.128 91.2615 100.761 91.1522 100.594 90.8887C100.478 90.683 100.395 90.4645 100.35 90.2331C100.286 89.976 100.247 89.7125 100.234 89.4426C100.228 89.2048 100.067 88.9927 99.8356 88.9348C99.5978 88.9284 99.3729 89.0634 99.27 89.2755C98.8458 90.4195 98.9808 91.6985 99.6364 92.7269C99.7456 92.894 99.8035 93.0868 99.8035 93.2861C99.8099 93.4918 99.6878 93.6781 99.495 93.7488C99.2893 93.826 99.1158 93.9674 98.9872 94.1538C98.9037 94.2952 98.788 94.4108 98.6402 94.488C98.4731 94.5972 98.2545 94.5587 98.1388 94.3916C98.1195 94.3659 98.1067 94.3337 98.0938 94.308C97.7082 93.4853 97.5604 92.5791 97.6568 91.6728L97.6632 91.5314C97.6696 91.4415 97.6182 91.3579 97.5347 91.3258C97.4575 91.3001 97.374 91.3258 97.329 91.39C97.2069 91.5379 97.104 91.6985 97.0333 91.8785C96.2171 93.4918 95.6772 95.2335 95.433 97.0267C95.3944 97.3802 95.2273 97.7145 94.9638 97.9587C94.8738 98.0487 94.7709 98.1065 94.6553 98.1451C94.0511 98.3122 93.4726 98.5693 92.9456 98.9164C92.6307 99.077 92.245 98.9549 92.0779 98.64C92.0394 98.5629 92.0136 98.4793 92.0072 98.3958C91.9879 97.9073 92.1743 97.4252 92.515 97.0782C92.6757 96.9303 92.7592 96.7118 92.7206 96.4997C92.605 95.8248 92.9006 95.15 93.4726 94.7708C93.5883 94.7001 93.6526 94.5715 93.6462 94.443C93.6783 93.9609 93.9033 93.511 94.2696 93.1961C94.3853 93.0933 94.4624 92.9519 94.4753 92.7976C94.5074 92.2063 94.8224 91.6664 95.3237 91.3515C95.4072 91.3001 95.4651 91.2165 95.4844 91.1201C95.5679 90.638 95.8122 90.201 96.1785 89.8796C96.2235 89.8218 96.2685 89.7768 96.3263 89.7382C96.532 89.6547 96.6927 89.494 96.7891 89.2883C97.104 88.6906 97.6568 88.2535 98.3124 88.0929C98.4602 88.0543 98.5116 88.0029 98.4538 87.8422C98.3252 87.463 98.3317 87.0516 98.4795 86.6853C98.5502 86.5567 98.5116 86.4025 98.3959 86.3189C98.1003 86.0168 98.1581 86.0233 97.8625 86.3061C97.5668 86.5953 97.4961 86.6596 97.1555 86.2996C96.8084 85.9333 96.8341 86.049 97.1555 85.7212C97.4768 85.3934 97.4897 85.3934 97.1619 85.0592C96.8341 84.725 96.8212 84.7892 97.1683 84.4422L97.4061 84.2108L97.3933 84.2686ZM99.4886 86.2804C99.3407 86.4089 99.2636 86.6017 99.2636 86.7945C99.2765 87.4116 99.7328 87.9322 100.343 88.0286C100.742 88.1121 101.128 87.8615 101.217 87.4694C101.25 87.328 101.237 87.1802 101.185 87.0516C101.063 86.5503 100.652 86.1647 100.144 86.0811C99.8935 86.0104 99.6235 86.1004 99.4628 86.3061" fill="white"/>
<path d="M106.855 93.9032L98.1846 102.355C97.9468 102.586 97.9468 102.586 97.6769 102.4C96.4364 101.597 95.016 101.115 93.5441 100.986C93.1264 100.947 92.6829 100.928 92.2973 100.947C92.1237 100.98 91.9566 100.87 91.9116 100.697C91.8538 100.523 91.9181 100.33 92.0723 100.234C92.1559 100.176 92.2587 100.138 92.3615 100.125C92.6122 100.086 92.8629 100.035 93.1071 99.9705C93.4156 99.8805 93.7048 99.7391 93.9619 99.5399C94.219 99.3406 94.5404 99.2378 94.8682 99.2442L95.4081 99.2571C95.5944 99.2378 95.768 99.1671 95.9094 99.045C96.0379 98.9486 96.1858 98.8907 96.34 98.8714C96.5328 98.8714 96.5971 98.9228 96.6164 99.1092C96.6357 99.2956 96.6357 99.3021 96.6549 99.4049C96.7706 100.202 97.4519 100.793 98.2553 100.8C98.5124 100.832 98.7695 100.767 98.9816 100.62C99.0459 100.575 99.0973 100.523 99.1423 100.465C99.2644 100.35 99.348 100.183 99.2708 100.009C99.1937 99.8419 99.0138 99.7391 98.8274 99.752C98.6988 99.7584 98.5703 99.752 98.4482 99.7263C98.1396 99.6748 97.8954 99.4306 97.8568 99.1157C97.8311 98.8264 97.9854 98.5436 98.2425 98.4087C98.3775 98.3251 98.5253 98.2801 98.6795 98.2608C99.0266 98.1837 99.3673 98.4087 99.4444 98.7557C99.4444 98.7686 99.4508 98.7814 99.4508 98.7943C99.5408 99.0771 99.7915 99.2699 100.087 99.2892C100.37 99.2378 100.582 99.0064 100.614 98.7236C100.646 98.1002 100.261 97.5346 99.6693 97.3417C99.393 97.2903 99.1102 97.2646 98.8274 97.2646C98.6988 97.271 98.6474 97.2196 98.641 97.0718C98.5703 96.5833 98.5831 96.082 98.686 95.6C98.7052 95.4907 98.7888 95.4007 98.9045 95.3878C99.3801 95.2722 99.875 95.2593 100.357 95.3493C100.486 95.3557 100.588 95.465 100.595 95.5935C100.614 95.8506 100.659 96.1077 100.736 96.3519C100.948 96.8725 101.437 97.2325 102.002 97.2839C102.337 97.3032 102.652 97.1296 102.812 96.834C102.87 96.744 102.877 96.6283 102.825 96.5319C102.722 96.2812 102.504 96.0948 102.24 96.0241C101.925 95.9534 101.694 95.6771 101.687 95.3493C101.694 95.0151 101.919 94.7194 102.24 94.6294C102.549 94.5202 102.883 94.6873 102.992 94.9958C102.999 95.0151 103.005 95.0279 103.005 95.0472C103.05 95.2272 103.146 95.3878 103.269 95.5228C103.519 95.7799 103.924 95.7799 104.175 95.5357C104.381 95.3429 104.49 95.0665 104.458 94.7837C104.464 94.0381 103.86 93.4275 103.114 93.4275C103.082 93.4275 103.044 93.4275 103.012 93.434L102.632 93.4275C102.433 93.4404 102.253 93.2926 102.24 93.0933C102.234 93.0033 102.26 92.9198 102.311 92.8491C102.607 92.3478 102.793 91.7886 102.844 91.2037C102.864 91.0173 102.851 90.8309 102.799 90.651C102.761 90.516 102.742 90.3746 102.748 90.2396C102.722 89.9697 102.922 89.7254 103.191 89.6997C103.243 89.6933 103.294 89.6997 103.339 89.7061C103.423 89.7126 103.513 89.7319 103.596 89.7576C104.168 89.9311 104.779 89.8861 105.319 89.6354C105.512 89.5583 105.692 89.4555 105.884 89.3655C106.058 89.237 106.296 89.2755 106.424 89.4426C106.489 89.5326 106.514 89.6419 106.495 89.7511C106.495 89.899 106.489 90.0404 106.489 90.1882C106.469 90.9145 107.035 91.5251 107.768 91.5443C107.781 91.5443 107.8 91.5443 107.813 91.5443C108.05 91.5701 108.288 91.5122 108.494 91.3837C108.79 91.223 108.899 90.8566 108.738 90.5674C108.732 90.5545 108.725 90.5417 108.719 90.5288C108.635 90.3489 108.481 90.2203 108.295 90.1625C108.237 90.1496 108.185 90.1303 108.134 90.0982C107.851 90.0147 107.678 89.7319 107.729 89.4426C107.781 89.1277 108.031 88.8835 108.346 88.8385C108.712 88.7742 109.072 88.9863 109.188 89.3398C109.227 89.4876 109.291 89.629 109.368 89.7576C109.503 90.0082 109.818 90.1046 110.075 89.9697C110.159 89.9247 110.229 89.854 110.281 89.7704C110.596 89.2948 110.519 88.6649 110.107 88.2793C109.799 87.9451 109.368 87.7587 108.912 87.7523C108.616 87.7137 108.616 87.7265 108.584 87.418C108.507 86.9681 108.526 86.5118 108.648 86.0747C108.668 85.9526 108.764 85.8562 108.886 85.8434C109.375 85.7277 109.882 85.7212 110.371 85.8305C110.454 85.8369 110.525 85.9076 110.519 85.9912C110.519 86.004 110.519 86.0105 110.512 86.0233C110.506 86.2676 110.519 86.5118 110.557 86.7496C110.692 87.4309 111.322 87.8937 112.01 87.8165C112.305 87.7908 112.524 87.5273 112.498 87.2316C112.492 87.1481 112.46 87.0645 112.415 86.9938C112.331 86.8139 112.17 86.6789 111.978 86.6275C111.663 86.5696 111.451 86.2676 111.508 85.9462C111.508 85.9398 111.508 85.9398 111.508 85.9333C111.528 85.6634 111.65 85.4127 111.855 85.2328C112.113 84.9885 112.517 85.0014 112.762 85.2585C112.807 85.3099 112.852 85.3677 112.877 85.432C112.967 85.5991 113.006 85.7855 112.993 85.9719C112.98 86.0169 112.98 86.0619 112.993 86.1069C113.077 86.5246 113.347 86.6596 113.674 86.409C113.925 86.2418 114.066 85.9591 114.054 85.6634C114.066 85.0592 113.784 84.4872 113.295 84.1337C113.038 83.9859 112.762 83.883 112.466 83.8445C112.132 83.7738 112.003 83.5424 112.222 83.2853C112.505 82.9318 112.633 82.4883 112.582 82.0384C112.569 81.7171 112.685 81.4021 112.903 81.1579C113.224 80.7273 113.424 80.2259 113.488 79.6925C113.501 79.5254 113.578 79.3647 113.7 79.249C113.822 79.1397 114.002 79.1269 114.144 79.204C114.42 79.3325 114.446 79.3968 114.439 79.7053C114.381 80.7273 114.497 81.7556 114.78 82.739C115.005 83.5681 115.365 84.3522 115.834 85.0657C115.898 85.1299 115.892 85.2392 115.827 85.3035C115.821 85.3099 115.815 85.3163 115.802 85.3228C115.757 85.3613 115.712 85.4063 115.673 85.4513L106.855 93.9032Z" fill="white"/>
<path d="M107.985 95.0857L116.777 86.5182C116.874 86.4218 116.945 86.4218 117.041 86.5246C117.369 86.8588 117.697 87.1995 118.031 87.5401C118.172 87.6815 118.314 87.8293 118.455 87.9707C118.596 88.1121 118.539 88.1314 118.455 88.2085L100.966 105.254C100.716 105.498 100.716 105.498 100.465 105.247L99.2246 103.975C99.0575 103.808 99.0511 103.801 99.231 103.628L107.979 95.105L107.985 95.0857ZM109.29 96.4483C109.553 96.1912 109.56 95.7734 109.303 95.5099C109.045 95.2464 108.628 95.24 108.364 95.4971C108.094 95.7284 108.069 96.1334 108.3 96.4033C108.306 96.4162 108.319 96.4226 108.326 96.4355C108.57 96.6925 108.981 96.6925 109.232 96.4483C109.238 96.4419 109.245 96.4354 109.258 96.4226L109.29 96.4483ZM101.397 102.246C101.153 102.503 101.172 102.914 101.429 103.152C101.686 103.396 102.098 103.377 102.335 103.12C102.567 102.869 102.567 102.477 102.323 102.233C102.078 101.976 101.667 101.976 101.416 102.22C101.41 102.226 101.403 102.233 101.397 102.246ZM112.754 93.0226C113.024 92.7912 113.05 92.3863 112.818 92.1163C112.812 92.1035 112.799 92.097 112.793 92.0842C112.542 91.8271 112.137 91.8271 111.886 92.0713C111.623 92.3284 111.616 92.7462 111.873 93.0097C112.131 93.2732 112.548 93.2797 112.812 93.0226H112.754ZM105.832 98.9228C105.581 98.6657 105.176 98.6657 104.926 98.9099C104.668 99.1606 104.668 99.5655 104.913 99.8162C105.157 100.073 105.568 100.08 105.819 99.829C105.825 99.8226 105.838 99.8098 105.845 99.8033C106.102 99.5527 106.102 99.1478 105.858 98.8971L105.832 98.9228ZM116.257 89.6611C116.52 89.404 116.527 88.9863 116.27 88.7227C116.013 88.4592 115.595 88.4592 115.331 88.7163C115.061 88.9477 115.036 89.3526 115.267 89.6225C115.273 89.6354 115.286 89.6418 115.293 89.6547C115.543 89.9118 115.948 89.9118 116.199 89.6675" fill="white"/>
<path d="M107.722 94.6229L99.2312 103.332C99.0191 103.55 99.0191 103.55 98.807 103.345C98.5949 103.139 98.5628 103.107 98.8006 102.863L115.749 85.4833C115.981 85.2455 115.981 85.2455 116.218 85.4705C116.263 85.509 116.308 85.554 116.347 85.599C116.398 85.6376 116.405 85.7083 116.366 85.7597C116.36 85.7661 116.353 85.7726 116.347 85.779L107.722 94.6229Z" fill="white"/>
</g>
<g clip-path="url(#clip1)">
<path d="M73.3685 19.245C71.8687 27.5242 76.4267 35.9952 84.5867 39.0489C92.7481 42.103 101.708 38.6939 106.016 31.4622L114.133 34.4998L104.703 59.698L55.856 41.4185L65.2857 16.2202L73.3685 19.245Z" fill="#FDC13A" stroke="#0D2240"/>
<path d="M59.7864 105.322C51.6316 102.266 42.6323 105.664 38.3229 112.896M59.7864 105.322L59.6109 105.791M59.7864 105.322C59.7863 105.322 59.7862 105.322 59.7862 105.322L59.6109 105.791M59.7864 105.322C67.9477 108.377 72.4685 116.831 70.9645 125.116M38.3229 112.896L59.6109 105.791M38.3229 112.896L30.2399 109.871L38.3229 112.896ZM59.6109 105.791C67.6727 108.807 72.0828 117.251 70.3932 125.436M70.9645 125.116L70.5684 124.968L70.3932 125.436M70.9645 125.116C70.939 125.257 70.9118 125.397 70.8829 125.537L70.3932 125.436M70.9645 125.116L70.3932 125.436M78.9061 128.622L79.3744 128.797L79.5496 128.329L79.0813 128.154L78.9061 128.622ZM102.484 65.6174L102.952 65.7927L103.127 65.3244L102.659 65.1492L102.484 65.6174ZM53.8173 46.867L53.349 46.6917L53.1737 47.16L53.6421 47.3353L53.8173 46.867Z" fill="#FDC13A" stroke="#0D2240"/>
<path d="M59.1721 79.302C59.2416 79.129 59.3112 78.9561 59.3723 78.78C59.4418 78.6071 59.5142 78.5953 59.6615 78.6553C59.8116 78.7212 59.9877 78.7822 60.1494 78.8428C60.3112 78.9033 60.3271 78.8607 60.3627 78.7527L60.5629 78.2308C60.6075 78.1116 60.675 78.0738 60.791 78.1269L61.33 78.3334C61.4433 78.3807 61.4641 78.4419 61.42 78.5467L61.2108 79.0798C61.1694 79.1905 61.1875 79.2458 61.2982 79.2872C61.3466 79.3005 61.3977 79.3196 61.4429 79.3414C61.5722 79.4237 61.7403 79.3896 61.828 79.2719C62.131 79.0068 62.508 78.8422 62.9149 78.8052C63.0393 78.7839 63.0861 78.7626 63.0626 78.6179C62.9398 77.8829 63.1568 77.1343 63.649 76.5712C63.7357 76.4823 63.7834 76.3546 63.7823 76.228C63.8076 75.8492 63.9584 75.4981 64.2215 75.2229C64.3655 75.0584 64.5293 74.9062 64.7068 74.7688C64.8047 74.689 64.8748 74.5794 64.8997 74.4479C65.0031 73.8995 65.3597 73.4263 65.8579 73.1712C66.0403 73.0599 66.179 72.8837 66.2326 72.6757C66.4115 72.2623 66.7289 71.92 67.133 71.7219C67.2792 71.6553 67.293 71.5149 67.3264 71.3867C67.406 71.0962 67.5451 70.828 67.7375 70.5991C67.9422 70.3506 68.2245 70.1796 68.5404 70.1135C68.7925 70.0622 68.9977 69.877 69.0757 69.6296C69.2717 69.1449 69.6704 68.7797 70.1596 68.6134C70.5 68.5078 70.8613 68.6964 70.9669 69.0368C70.9924 69.124 71.0037 69.2107 70.9888 69.3022C70.877 69.9252 70.8626 70.5603 70.9433 71.1874C70.9647 71.3895 70.9112 71.5975 70.7815 71.7625C70.6407 71.9961 70.4467 72.1904 70.209 72.3198C68.5931 73.2534 67.1625 74.4698 65.9826 75.9111L65.7562 76.2048C65.6877 76.2714 65.684 76.3719 65.7389 76.4458C65.8049 76.5287 65.9161 76.5558 66.0097 76.5132L66.2356 76.3891C67.0067 75.9886 67.8709 75.7927 68.7385 75.8214C68.9401 75.8143 69.1157 75.9674 69.1228 76.169C69.1244 76.2036 69.1202 76.2408 69.1101 76.2807C69.0905 76.4238 69.0395 76.56 68.9545 76.6835C68.8036 76.8794 68.7314 77.1241 68.7512 77.3693C68.7769 77.6118 68.6106 77.8359 68.3675 77.8759C68.2224 77.9138 68.0782 77.923 67.9324 77.8975C66.7754 77.6829 65.5841 78.0135 64.699 78.7838C64.5458 78.8818 64.4422 79.042 64.4157 79.2164C64.3632 79.4734 64.5267 79.7238 64.7837 79.7763C64.8693 79.7938 64.9587 79.7884 65.0374 79.7596C65.4809 79.5859 65.9585 79.5026 66.4357 79.5113C66.5335 79.5091 66.6335 79.5272 66.7272 79.5622C66.9991 79.6785 67.1259 79.988 67.0096 80.2599C66.9942 80.2881 66.9788 80.3163 66.9634 80.3445C66.7912 80.6489 66.4514 80.8177 66.1078 80.7765C65.8344 80.7809 65.5775 80.8838 65.3729 81.0546C64.8949 81.463 64.8316 82.1768 65.2399 82.6548C65.2564 82.6755 65.2703 82.6904 65.2868 82.7111C65.3586 82.7914 65.4337 82.8631 65.4997 82.9461C65.7116 83.2098 65.7416 83.5704 65.57 83.8604C65.4686 84.1185 65.0899 84.1709 64.8286 84.0003C64.6381 83.8611 64.4715 83.6968 64.3346 83.5049C64.1696 83.2975 64.0253 83.0737 63.9017 82.8333C63.7973 82.6196 63.5632 82.4931 63.3286 82.5364C63.1095 82.6291 62.9607 82.8452 62.9551 83.0808C63.0431 84.2978 63.696 85.4059 64.7188 86.0701C64.8875 86.1769 65.0201 86.3284 65.1027 86.5097C65.1937 86.6942 65.1598 86.9145 65.0137 87.0587C64.8585 87.2142 64.7591 87.4148 64.7194 87.6377C64.7019 87.801 64.6446 87.9542 64.542 88.0857C64.4352 88.2544 64.2204 88.3098 64.0458 88.2057C64.0176 88.1903 63.9926 88.1664 63.9702 88.1483C63.2783 87.5594 62.7682 86.7959 62.4804 85.9312L62.4277 85.7998C62.3962 85.7153 62.3148 85.6605 62.2254 85.6659C62.1446 85.6745 62.0792 85.7325 62.0649 85.8097C62.015 85.9948 61.988 86.1837 61.9983 86.3767C61.924 88.1832 62.1545 89.9921 62.6753 91.7253C62.7867 92.063 62.7732 92.4364 62.6346 92.7679C62.59 92.8871 62.5203 92.9823 62.431 93.0654C61.9504 93.4678 61.5306 93.9415 61.1947 94.4758C60.9747 94.7526 60.5731 94.8013 60.2905 94.5839C60.2235 94.5297 60.1655 94.4643 60.125 94.3909C59.905 93.9544 59.8749 93.4384 60.041 92.9814C60.126 92.7803 60.1115 92.5468 59.9885 92.3697C59.6035 91.8035 59.5929 91.0668 59.9563 90.4846C60.0323 90.3723 60.0376 90.2287 59.9784 90.1144C59.8079 89.6623 59.8262 89.1597 60.0291 88.7212C60.0917 88.5797 60.1033 88.419 60.0511 88.2733C59.8353 87.7219 59.8982 87.1 60.2239 86.6056C60.2786 86.5242 60.2967 86.4242 60.2743 86.3284C60.1505 85.8551 60.1917 85.3561 60.3919 84.9119C60.4089 84.8406 60.4312 84.781 60.4678 84.7219C60.6204 84.5606 60.7 84.3478 60.7025 84.1207C60.7414 83.4462 61.0634 82.8193 61.5934 82.4014C61.7119 82.3051 61.7374 82.2369 61.6182 82.1147C61.3441 81.8229 61.1794 81.4458 61.1621 81.0512C61.1732 80.9049 61.0742 80.7805 60.9343 80.7524C60.54 80.6 60.5953 80.5819 60.4435 80.9618C60.2942 81.3475 60.2565 81.4353 59.7974 81.2489C59.3297 81.0593 59.401 81.154 59.5576 80.7225C59.7143 80.291 59.726 80.2856 59.2891 80.1173C58.8523 79.949 58.8672 80.0128 59.0393 79.5531L59.1598 79.244L59.1721 79.302ZM61.9127 80.2645C61.8314 80.4427 61.8411 80.6502 61.921 80.8256C62.1885 81.3818 62.8195 81.6665 63.4152 81.5012C63.8124 81.4121 64.0595 81.0242 63.9789 80.6301C63.9496 80.4881 63.8766 80.3589 63.7765 80.2632C63.4576 79.8575 62.9235 79.6771 62.4267 79.8114C62.1693 79.851 61.9609 80.0447 61.8999 80.2985" fill="white"/>
<path d="M71.7758 84.1487L67.3877 95.4338C67.2672 95.743 67.2672 95.743 66.9443 95.6852C65.4824 95.4681 63.9899 95.6181 62.5972 96.1111C62.201 96.2491 61.7894 96.4153 61.4464 96.5927C61.3018 96.6939 61.1044 96.6637 60.9916 96.5244C60.867 96.3904 60.8456 96.1883 60.946 96.0367C60.9981 95.9494 61.0757 95.8717 61.1639 95.8174C61.3761 95.6784 61.5829 95.5277 61.7785 95.368C62.022 95.1582 62.2266 94.9097 62.378 94.6218C62.5294 94.3339 62.7793 94.1072 63.0803 93.9772L63.5769 93.7651C63.7386 93.6703 63.8672 93.5341 63.9453 93.3643C64.0223 93.2233 64.1329 93.1094 64.2653 93.0279C64.4408 92.948 64.5206 92.9682 64.6154 93.1298C64.7102 93.2915 64.7128 93.2973 64.773 93.3829C65.2086 94.0603 66.0736 94.3161 66.8075 93.989C67.0548 93.9117 67.2621 93.7466 67.3939 93.5242C67.4337 93.4566 67.4592 93.3885 67.4762 93.3172C67.5394 93.1613 67.5462 92.9746 67.404 92.8487C67.2646 92.7285 67.0582 92.7095 66.8939 92.7985C66.7796 92.8576 66.6599 92.905 66.5381 92.9322C66.2361 93.0133 65.9126 92.8922 65.7469 92.6216C65.6037 92.369 65.6269 92.0477 65.8049 91.8184C65.8931 91.6864 66.009 91.5842 66.1414 91.5027C66.4253 91.2887 66.8285 91.3522 67.0426 91.6361C67.0479 91.6478 67.0591 91.6569 67.0644 91.6686C67.2635 91.8886 67.5715 91.9602 67.8486 91.8553C68.0846 91.6913 68.1818 91.3928 68.0938 91.1221C67.8647 90.5414 67.2793 90.1865 66.6613 90.256C66.3885 90.3238 66.1204 90.4176 65.8631 90.5348C65.7487 90.5939 65.6806 90.5684 65.6135 90.4365C65.3468 90.0213 65.1507 89.5597 65.0445 89.0784C65.0168 88.971 65.0555 88.8545 65.1555 88.7948C65.5404 88.4924 65.9855 88.2756 66.4615 88.1577C66.5811 88.1103 66.72 88.1671 66.7791 88.2815C66.9032 88.5074 67.0507 88.7228 67.2221 88.9131C67.6309 89.299 68.2246 89.4241 68.7606 89.2365C69.0728 89.1155 69.2875 88.8271 69.3112 88.4914C69.3266 88.3856 69.2845 88.2776 69.1977 88.2112C69.0002 88.0257 68.7241 87.9466 68.455 87.9915C68.1391 88.0576 67.814 87.902 67.6723 87.6064C67.5396 87.2995 67.6218 86.9372 67.877 86.7222C68.1125 86.4949 68.4859 86.5084 68.7132 86.7439C68.727 86.7588 68.7382 86.7679 68.7462 86.7854C68.8617 86.9305 69.016 87.0368 69.1831 87.109C69.5178 87.2391 69.8863 87.0713 70.0132 86.7452C70.1205 86.4845 70.1054 86.1876 69.9589 85.9436C69.6558 85.2624 68.8529 84.9571 68.1744 85.2661C68.1452 85.2794 68.1101 85.2954 68.0835 85.3146L67.7357 85.4659C67.5597 85.5601 67.3346 85.5002 67.2404 85.3242C67.1972 85.2449 67.186 85.1582 67.2035 85.0726C67.2648 84.4938 67.2027 83.9077 67.0071 83.3541C66.9474 83.1765 66.8585 83.0122 66.7371 82.8697C66.6461 82.7628 66.5699 82.6421 66.5198 82.5166C66.3846 82.2816 66.4647 81.9768 66.6997 81.8415C66.7438 81.8143 66.7933 81.7989 66.8369 81.7861C66.9156 81.7573 67.0055 81.7376 67.0922 81.7263C67.6847 81.6472 68.2217 81.3532 68.6092 80.9013C68.7527 80.7512 68.8739 80.5831 69.012 80.4213C69.1167 80.2324 69.3491 80.1689 69.5354 80.2677C69.6311 80.323 69.6998 80.4118 69.7276 80.5192C69.7888 80.6537 69.8416 80.7851 69.9028 80.9196C70.1863 81.5886 70.9541 81.9099 71.6289 81.6238C71.6406 81.6184 71.6581 81.6104 71.6698 81.6051C71.8969 81.53 72.0894 81.3788 72.2233 81.1765C72.4257 80.9078 72.3734 80.5291 72.1073 80.3324C72.0961 80.3234 72.0849 80.3144 72.0737 80.3053C71.9231 80.1762 71.7294 80.1231 71.5358 80.1477C71.4779 80.16 71.4231 80.1638 71.363 80.1558C71.071 80.197 70.7958 80.0115 70.7228 79.727C70.6391 79.4191 70.766 79.0929 71.0339 78.9215C71.3407 78.7111 71.7562 78.755 72.008 79.0288C72.1043 79.1473 72.2214 79.2494 72.3449 79.3344C72.5716 79.5066 72.8982 79.4638 73.0762 79.2344C73.1336 79.1589 73.1686 79.0652 73.1808 78.9679C73.2703 78.4045 72.9391 77.8632 72.4049 77.6827C71.9856 77.5064 71.5165 77.5153 71.0985 77.6985C70.8135 77.786 70.8188 77.7976 70.6617 77.5302C70.405 77.1527 70.2335 76.7294 70.1635 76.281C70.1304 76.1619 70.1782 76.0342 70.284 75.9719C70.6806 75.6642 71.1401 75.4479 71.6299 75.3449C71.7086 75.3161 71.8022 75.3512 71.831 75.4299C71.8363 75.4416 71.839 75.4474 71.8385 75.4618C71.9339 75.6867 72.0468 75.9037 72.1804 76.1041C72.5856 76.6682 73.3506 76.8283 73.9445 76.4731C74.203 76.3272 74.2926 75.9968 74.1467 75.7384C74.1062 75.665 74.0424 75.6023 73.9721 75.5566C73.8215 75.4275 73.6193 75.3712 73.4225 75.4043C73.1119 75.4822 72.7937 75.2952 72.7132 74.9787C72.7105 74.9729 72.7105 74.9729 72.7078 74.967C72.6135 74.7134 72.6208 74.4347 72.7334 74.1856C72.8661 73.8568 73.24 73.7007 73.5688 73.8335C73.631 73.8616 73.696 73.8956 73.746 73.9434C73.8971 74.0582 74.0095 74.2119 74.075 74.3868C74.082 74.4331 74.1006 74.4741 74.131 74.5097C74.3801 74.8553 74.6818 74.8662 74.8762 74.5023C75.0351 74.2463 75.0465 73.9303 74.9123 73.6666C74.6736 73.1114 74.1792 72.708 73.5881 72.5887C73.2929 72.5608 72.9988 72.5817 72.7137 72.6691C72.3803 72.7433 72.1674 72.586 72.2597 72.2615C72.3706 71.8225 72.3038 71.3657 72.0705 70.9775C71.9257 70.6904 71.9004 70.3558 71.9981 70.043C72.1121 69.5179 72.0856 68.9791 71.9231 68.4669C71.8655 68.3095 71.8691 68.1313 71.9323 67.9754C71.9982 67.8254 72.1566 67.7391 72.3173 67.7507C72.6221 67.7531 72.6721 67.801 72.7941 68.0844C73.165 69.0384 73.6964 69.9264 74.3613 70.7041C74.9097 71.3655 75.5622 71.9299 76.2849 72.3848C76.37 72.4166 76.4094 72.5187 76.3776 72.6039C76.3744 72.6124 76.3712 72.6209 76.3622 72.6321C76.3372 72.6858 76.3149 72.7454 76.2984 72.8023L71.7758 84.1487Z" fill="white"/>
<path d="M73.2954 84.7563L77.7467 73.3153C77.7945 73.1876 77.8588 73.1583 77.9892 73.2119C78.426 73.3802 78.8655 73.5544 79.3108 73.7259C79.4981 73.796 79.6881 73.8719 79.8753 73.942C80.0626 74.0121 80.018 74.0536 79.9739 74.1584L71.1218 96.9186C70.9949 97.2448 70.9949 97.2448 70.6629 97.1205L69.0065 96.4765C68.7852 96.3936 68.7767 96.3904 68.8686 96.1579L73.2975 84.7765L73.2954 84.7563ZM75.0475 85.4556C75.1808 85.1124 75.0135 84.7296 74.6703 84.5963C74.3271 84.463 73.9443 84.6303 73.811 84.9735C73.6612 85.2959 73.8056 85.6751 74.1281 85.8249C74.1392 85.8339 74.1536 85.8344 74.1648 85.8435C74.4936 85.9762 74.8679 85.8058 74.9949 85.4796C74.998 85.4711 75.0012 85.4626 75.0076 85.4455L75.0475 85.4556ZM70.2671 94.0027C70.1514 94.3379 70.3394 94.7042 70.6719 94.8141C71.0071 94.9298 71.3735 94.7418 71.4834 94.4093C71.5901 94.0853 71.4276 93.7285 71.1041 93.6074C70.7753 93.4747 70.4009 93.6451 70.274 93.9713C70.2708 93.9798 70.2676 93.9883 70.2671 94.0027ZM76.7806 80.9022C76.9304 80.5798 76.786 80.2006 76.4635 80.0508C76.4523 80.0418 76.438 80.0413 76.4268 80.0322C76.0921 79.9021 75.7236 80.07 75.5967 80.3961C75.4634 80.7393 75.6307 81.1222 75.9739 81.2554C76.3171 81.3887 76.6999 81.2214 76.8332 80.8783L76.7806 80.9022ZM72.9261 89.1407C72.5914 89.0106 72.2229 89.1784 72.096 89.5045C71.9659 89.8392 72.1337 90.2077 72.4598 90.3346C72.7887 90.4674 73.1657 90.3027 73.2899 89.9707C73.2931 89.9622 73.2995 89.9452 73.3027 89.9367C73.4328 89.602 73.2649 89.2335 72.9388 89.1066L72.9261 89.1407ZM78.5754 76.3913C78.7087 76.0482 78.5414 75.6653 78.1982 75.532C77.855 75.3987 77.4748 75.5719 77.3415 75.915C77.1918 76.2375 77.3362 76.6167 77.6586 76.7664C77.6698 76.7755 77.6842 76.776 77.6953 76.785C78.03 76.9151 78.3985 76.7473 78.5254 76.4212" fill="white"/>
<path d="M72.8625 84.4447L68.7448 95.8893C68.6423 96.176 68.6423 96.176 68.364 96.0768C68.0858 95.9775 68.0432 95.9616 68.1584 95.6407L76.3807 72.8001C76.4927 72.4878 76.4927 72.4878 76.8024 72.594C76.8593 72.6104 76.9189 72.6327 76.9726 72.6577C77.0354 72.6715 77.0705 72.7331 77.0568 72.7959C77.0536 72.8044 77.0504 72.8129 77.0472 72.8215L72.8625 84.4447Z" fill="white"/>
</g>
<defs>
<clipPath id="clip0">
<rect width="109" height="109" fill="white" transform="translate(57.6855 28.6857)"/>
</clipPath>
<clipPath id="clip1">
<rect width="109" height="109" fill="white" transform="translate(0 45.1725) rotate(-24.4832)"/>
</clipPath>
</defs>
</svg>
