<svg width="77" height="134" viewBox="0 0 77 134" fill="none" xmlns="http://www.w3.org/2000/svg">
<g clip-path="url(#clip0)">
<path d="M23.0147 34.5032C22.8457 34.5436 22.6742 34.4397 22.6437 34.2674L18.0981 14.7626C18.0593 14.5993 18.1615 14.4369 18.324 14.3883L18.7766 14.2902C18.9432 14.2473 19.1048 14.3619 19.1419 14.5325L23.6991 34.0258C23.7329 34.194 23.6356 34.3564 23.4599 34.3985L23.0147 34.5032Z" fill="#88C100"/>
<path d="M18.6973 14.3066C24.4978 13.0056 30.2134 16.4617 31.4609 22.0292C32.7101 27.591 29.0212 33.1584 23.2041 34.4561L18.6973 14.3066Z" fill="#88C100"/>
<path d="M18.3711 15.7684C23.7313 14.5037 28.9951 17.4173 30.1214 22.2782C31.2601 27.121 27.8342 32.0677 22.4739 33.3225L18.3711 15.7684Z" fill="white"/>
<path d="M18.7285 17.3678C23.2659 16.3331 27.6631 18.6581 28.5577 22.5775C29.4515 26.4862 26.5005 30.498 21.9656 31.5294L18.7285 17.3678Z" fill="#C1E856"/>
<path d="M20.3926 23.9939L27.0688 29.5449C27.2213 29.6686 27.2634 29.878 27.1586 30.0148L26.9162 30.3042C26.8049 30.432 26.5938 30.432 26.4306 30.2984L20.5352 25.3979L20.3926 23.9939Z" fill="white"/>
<path d="M20.4809 24.449C20.5023 24.2791 20.659 24.1653 20.8535 24.1843L28.7962 25.0673C28.9809 25.0854 29.1137 25.2371 29.0988 25.4004L29.0667 25.7837C29.0436 25.9445 28.882 26.0632 28.6907 26.0418L20.7439 25.1572C20.5575 25.1456 20.4198 24.989 20.4347 24.8257L20.4809 24.449Z" fill="white"/>
<path d="M20.5394 24.1793C20.457 24.0317 20.5229 23.8454 20.6878 23.744L27.7276 19.9639C27.9032 19.8732 28.1011 19.926 28.1786 20.0727L28.3526 20.4066C28.44 20.56 28.3691 20.7463 28.2034 20.837L21.1586 24.6179C20.9888 24.7069 20.7934 24.6632 20.7191 24.5066L20.5394 24.1793Z" fill="white"/>
<path d="M20.0703 23.0531L23.6537 16.3974C23.7675 16.1904 23.9687 16.1039 24.127 16.1781L24.4601 16.352C24.606 16.4353 24.6382 16.6703 24.5343 16.8665L20.4545 24.688L20.0703 23.0531Z" fill="white"/>
<path d="M31.3802 76.5013C29.8441 72.4681 29.06 71.9248 29.1144 70.2545C29.7699 50.0011 30.5202 33.2195 30.5202 33.2195C31.5525 29.0189 30.3314 26.9668 30.3314 26.9668L26.5798 26.5093L25.4716 26.3741L21.72 25.9165C21.72 25.9165 18.8499 28.1623 20.0331 31.9407C20.0331 31.9407 16.7242 48.4099 12.4887 68.2263C12.1391 69.8604 11.2477 70.1993 8.78653 73.7444C4.23185 80.3012 5.83473 81.6038 2.79223 105.114C-0.251094 128.624 0.00533319 128.655 0.00533319 128.655C0.00533319 128.655 0.224656 132.025 12.9471 133.577C25.6695 135.129 26.6928 131.912 26.6928 131.912C26.6928 131.912 27.0341 131.955 29.7361 108.403C32.4372 84.8505 34.2215 83.9618 31.3802 76.5013Z" fill="#FFC627"/>
<path d="M30.2774 32.6581L20.1481 31.4214C19.6979 31.3662 19.3747 30.9531 19.43 30.503L19.7804 27.6339C19.8356 27.1838 20.2487 26.8606 20.6989 26.9158L30.8282 28.1525C31.2784 28.2077 31.6016 28.6208 31.5464 29.0709L31.196 31.94C31.1407 32.3893 30.7276 32.7125 30.2774 32.6581Z" fill="#F3EFE6"/>
<path d="M31.018 33.2954C31.036 33.1872 31.0165 33.0863 30.9811 33.0066C30.9153 32.8584 30.7987 32.7872 30.7745 32.7724L30.7729 32.7714C30.7012 32.7275 30.6245 32.7031 30.5883 32.6919C30.4955 32.6631 30.3693 32.6346 30.2294 32.6066C29.9422 32.5492 29.5267 32.4803 29.0316 32.4056C28.0387 32.2556 26.6977 32.0776 25.3576 31.914C24.0175 31.7505 22.6732 31.6007 21.6734 31.5076C21.1751 31.4611 20.7553 31.4281 20.4627 31.4149C20.3202 31.4084 20.1909 31.4058 20.0938 31.4114C20.056 31.4136 19.9753 31.419 19.8948 31.4448C19.8942 31.4449 19.8936 31.4451 19.893 31.4453C19.8658 31.454 19.7347 31.4957 19.6354 31.6252C19.5825 31.6942 19.5405 31.7866 19.5321 31.8944L19.5218 31.9455L19.46 32.2526C19.4054 32.5232 19.3245 32.9242 19.219 33.445C19.0082 34.4866 18.6994 36.0077 18.3077 37.9255C17.5243 41.7612 16.4093 47.1836 15.0828 53.5306L14.9715 54.0633L15.5117 54.1292L29.5715 55.8449L30.1117 55.9108L30.1317 55.367C30.3708 48.8873 30.593 43.3558 30.7554 39.4443C30.8366 37.4886 30.9029 35.9379 30.9488 34.8761C30.9718 34.3453 30.9897 33.9367 31.0019 33.6608L31.0157 33.3478L31.018 33.2954Z" fill="#F3EFE6" stroke="#0D2240"/>
<path d="M30.9031 29.3726L20.3303 28.0824C19.6739 28.0024 19.2023 27.3997 19.2823 26.7435C19.3623 26.0872 19.965 25.6156 20.6213 25.6956L31.1942 26.9859C31.8505 27.0658 32.3222 27.6685 32.2422 28.3248C32.1622 28.9819 31.5595 29.4534 30.9031 29.3726Z" fill="#F3EFE6"/>
<path d="M30.2437 33.3588L20.2678 32.1411C19.6114 32.0611 19.1398 31.4585 19.2198 30.8022C19.2998 30.1459 19.9025 29.6744 20.5588 29.7543L30.5348 30.972C31.1911 31.052 31.6627 31.6547 31.5827 32.3109C31.5027 32.968 30.9 33.4396 30.2437 33.3588Z" fill="#F3EFE6"/>
<path d="M30.6407 85.9723L28.4371 104.019L5.19361 101.182L7.39636 83.1353L7.39637 83.1352C7.49155 82.3543 8.2108 81.7915 8.9923 81.8866C8.99233 81.8867 8.99236 81.8867 8.9924 81.8867L29.3919 84.3765L29.392 84.3765C30.1731 84.4717 30.7358 85.1909 30.6407 85.9722C30.6407 85.9722 30.6407 85.9723 30.6407 85.9723Z" fill="#F3EFE6" stroke="#0D2240"/>
<path d="M4.05745 122.313L24.457 124.803C25.5124 124.932 26.4813 124.174 26.6099 123.119L28.8732 104.575L4.63709 101.617L2.37377 120.161C2.24432 121.216 3.00288 122.185 4.05745 122.313Z" fill="#212A3F"/>
<path d="M21.2201 113.052C24.0379 110.235 24.0379 105.667 21.2201 102.849C18.4024 100.032 13.8339 100.032 11.0161 102.849C8.19832 105.667 8.19832 110.235 11.0161 113.052C13.8339 115.87 18.4024 115.87 21.2201 113.052Z" fill="#FFC627"/>
<path d="M33.558 18.864C33.4203 18.9704 33.2216 18.9465 33.1226 18.8022L20.9518 2.89531C20.8487 2.76257 20.8759 2.57295 21.0037 2.46083L21.3756 2.18464C21.51 2.07663 21.7038 2.11456 21.8077 2.25554L33.9834 18.1468C34.084 18.2861 34.0618 18.4741 33.9183 18.5846L33.558 18.864Z" fill="#88C100"/>
<path d="M21.3105 2.23335C26.0615 -1.33898 32.6931 -0.540913 36.1215 4.01993C39.5482 8.57501 38.478 15.1673 33.7098 18.7437L21.3105 2.23335Z" fill="#88C100"/>
<path d="M21.6152 3.70005C25.9803 0.342067 31.9762 0.831789 35.0039 4.79903C38.0349 8.74402 36.9481 14.6627 32.579 18.0116L21.6152 3.70005Z" fill="white"/>
<path d="M22.5996 5.01011C26.3092 2.20039 31.2736 2.51039 33.7019 5.71419C36.1251 8.90892 35.0862 13.7789 31.3775 16.5862L22.5996 5.01011Z" fill="#C1E856"/>
<path d="M26.8438 10.3641L35.2127 12.6767C35.4032 12.727 35.5268 12.9001 35.4881 13.0675L35.3867 13.4303C35.338 13.5927 35.1451 13.6792 34.9414 13.6248L27.552 11.5843L26.8438 10.3641Z" fill="white"/>
<path d="M27.111 10.7424C27.0607 10.5792 27.1563 10.411 27.3418 10.3484L34.9448 7.88491C35.1212 7.82473 35.3043 7.90882 35.357 8.06382L35.4848 8.42657C35.5302 8.58239 35.4312 8.75718 35.2482 8.81654L27.6411 11.28C27.4663 11.3459 27.2767 11.2602 27.2231 11.1052L27.111 10.7424Z" fill="white"/>
<path d="M27.0526 10.4737C26.9165 10.3723 26.9 10.1761 27.0089 10.0162L31.8694 3.67369C31.9923 3.5187 32.1943 3.48572 32.3254 3.58713L32.6214 3.82045C32.7641 3.9235 32.7764 4.12302 32.6626 4.27389L27.7979 10.618C27.68 10.7697 27.4838 10.8093 27.351 10.698L27.0526 10.4737Z" fill="white"/>
<path d="M26.1621 9.63944L26.689 2.09904C26.7071 1.86407 26.8555 1.70166 27.0303 1.70413L27.4063 1.72557C27.5729 1.74123 27.6998 1.94239 27.6858 2.16417L27.1862 10.9717L26.1621 9.63944Z" fill="white"/>
<path d="M58.4672 53.6996C55.4074 50.6558 54.4691 50.4826 53.8309 48.9384C46.0927 30.2095 39.8708 14.6059 39.8708 14.6059C39.0826 10.3534 37.126 8.98486 37.126 8.98486L33.5179 10.1111L32.4518 10.4441L28.8436 11.5703C28.8436 11.5703 27.1517 14.798 29.7852 17.7545C29.7852 17.7545 33.5476 34.1256 37.8417 53.9296C38.1954 55.5629 37.5226 56.2389 36.7385 60.4824C35.2873 68.3319 37.2843 68.8596 44.1864 91.5393C51.0877 114.218 51.3342 114.142 51.3342 114.142C51.3342 114.142 52.9206 117.122 65.1549 113.303C77.3892 109.483 76.9976 106.13 76.9976 106.13C76.9976 106.13 77.3258 106.027 70.0963 83.4507C62.8669 60.874 64.1276 59.3298 58.4672 53.6996Z" fill="#FFC627"/>
<path d="M39.5186 14.1615L29.574 17.2664C29.1972 17.3843 28.7924 17.1716 28.6745 16.7948L27.7493 13.8325C27.6314 13.4558 27.8442 13.051 28.221 12.9331L38.1656 9.8282C38.5424 9.7103 38.9472 9.92301 39.0651 10.2998L39.9903 13.262C40.1082 13.6396 39.8954 14.0444 39.5186 14.1615Z" fill="#F3EFE6"/>
<path d="M40.3537 14.4708C40.3259 14.366 40.2676 14.2825 40.203 14.2242C40.082 14.115 39.9457 14.0977 39.9174 14.0942L39.9155 14.0939C39.8318 14.0831 39.7516 14.0925 39.7141 14.0971C39.6176 14.1091 39.4908 14.135 39.3518 14.167C39.0665 14.2328 38.6595 14.3409 38.1777 14.4764C37.2111 14.7482 35.9158 15.1377 34.6272 15.54C33.3386 15.9424 32.0517 16.3591 31.1021 16.6855C30.6288 16.8482 30.2325 16.9908 29.9605 17.0991C29.8279 17.1519 29.7089 17.2027 29.6228 17.2477C29.5892 17.2653 29.518 17.3032 29.4553 17.3596C29.4549 17.36 29.4544 17.3604 29.4539 17.3609C29.4327 17.3799 29.3306 17.4714 29.293 17.6297C29.2729 17.7145 29.2723 17.8166 29.3092 17.9189L29.3209 17.9699L29.3909 18.2752C29.4526 18.5444 29.5438 18.9431 29.6621 19.4611C29.8985 20.4972 30.2431 22.0105 30.6753 23.9196C31.5398 27.7377 32.755 33.1385 34.1577 39.469L34.2755 40.0003L34.7949 39.8381L48.3155 35.6169L48.835 35.4548L48.6295 34.9509C46.181 28.9468 44.1069 23.8141 42.6451 20.1825C41.9141 18.3666 41.3363 16.9261 40.9411 15.9396C40.7436 15.4463 40.5917 15.0666 40.4892 14.8101L40.373 14.5192L40.3537 14.4708Z" fill="#F3EFE6" stroke="#0D2240"/>
<path d="M38.6362 10.942L28.469 14.1162C27.8374 14.3132 27.1597 13.9579 26.9626 13.3263C26.7655 12.6948 27.1209 12.0171 27.7525 11.8201L37.9197 8.64595C38.5513 8.44891 39.2291 8.80424 39.4261 9.43577C39.6232 10.0673 39.2678 10.745 38.6362 10.942Z" fill="#F3EFE6"/>
<path d="M39.6756 14.8467L30.0823 17.8419C29.4507 18.039 28.7729 17.6836 28.5759 17.0521C28.3788 16.4206 28.7342 15.7429 29.3658 15.5458L38.9591 12.5506C39.5907 12.3536 40.2685 12.7089 40.4655 13.3404C40.6618 13.972 40.3064 14.6497 39.6756 14.8467Z" fill="#F3EFE6"/>
<path d="M61.6182 62.6503L61.6182 62.6504L67.0372 80.0051L44.6849 86.9829L39.2659 69.6282C39.2659 69.6282 39.2659 69.6282 39.2659 69.6281C39.0315 68.8766 39.4554 68.0682 40.2064 67.8339L40.2066 67.8339L59.8236 61.7099C60.5752 61.4754 61.3839 61.8993 61.6182 62.6503Z" fill="#F3EFE6" stroke="#0D2240"/>
<path d="M52.4166 106.696L72.0337 100.572C73.0487 100.255 73.6192 99.1663 73.3026 98.1514L67.7346 80.3195L44.4277 87.5952L49.9958 105.427C50.3124 106.441 51.4016 107.013 52.4166 106.696Z" fill="#212A3F"/>
<path d="M62.601 93.7444C65.4188 90.9269 65.4188 86.3588 62.601 83.5413C59.7832 80.7238 55.2147 80.7238 52.397 83.5413C49.5792 86.3588 49.5792 90.9269 52.397 93.7444C55.2147 96.5619 59.7832 96.5619 62.601 93.7444Z" fill="#FFC627"/>
</g>
<defs>
<clipPath id="clip0">
<rect width="77" height="134" fill="white"/>
</clipPath>
</defs>
</svg>
