<svg width="23" height="22" viewBox="0 0 23 22" fill="none" xmlns="http://www.w3.org/2000/svg">
<path d="M11.5001 0.0457153C5.14882 0.0457153 0 4.97067 0 11.0458C0 16.4944 4.146 21.0068 9.58209 21.8806V13.3407H6.80793V10.2675H9.58209V8.00147C9.58209 5.37221 11.261 3.93941 13.7134 3.93941C14.888 3.93941 15.8974 4.02313 16.1904 4.06001V6.80828L14.4895 6.80907C13.156 6.80907 12.8989 7.41505 12.8989 8.30459V10.2659H16.0807L15.6657 13.3391H12.8989V21.9541C18.5888 21.2917 23 16.6644 23 11.0426C23 4.97067 17.8512 0.0457153 11.5001 0.0457153Z" fill="#FFC627"/>
</svg>
