<svg width="122" height="152" viewBox="0 0 122 152" fill="none" xmlns="http://www.w3.org/2000/svg">
<g clip-path="url(#clip0)">
<path d="M51.2413 86.3359H46.3613V94.8479H51.2413V86.3359Z" fill="#FFC627"/>
<path d="M78.0812 86.3359H73.2012V94.8479H78.0812V86.3359Z" fill="#FFC627"/>
<path d="M40.8709 69.312C42.8923 69.312 44.5309 67.6787 44.5309 65.664C44.5309 63.6493 42.8923 62.016 40.8709 62.016C38.8496 62.016 37.2109 63.6493 37.2109 65.664C37.2109 67.6787 38.8496 69.312 40.8709 69.312Z" fill="#FFC627"/>
<path d="M40.8709 37.696C42.8923 37.696 44.5309 36.0628 44.5309 34.048C44.5309 32.0333 42.8923 30.4 40.8709 30.4C38.8496 30.4 37.2109 32.0333 37.2109 34.048C37.2109 36.0628 38.8496 37.696 40.8709 37.696Z" fill="#FFC627"/>
<path d="M64.6613 86.3359H59.7812V94.8479H64.6613V86.3359Z" fill="#FFC627"/>
<path d="M40.8709 53.504C42.8923 53.504 44.5309 51.8707 44.5309 49.856C44.5309 47.8413 42.8923 46.208 40.8709 46.208C38.8496 46.208 37.2109 47.8413 37.2109 49.856C37.2109 51.8707 38.8496 53.504 40.8709 53.504Z" fill="#FFC627"/>
<path d="M95.1607 20.672C94.5141 20.672 93.9041 20.9274 93.4405 21.3894C92.9769 21.8515 92.7207 22.4595 92.7207 23.104V97.28H97.6007V23.104C97.6007 21.7664 96.5027 20.672 95.1607 20.672Z" fill="#F3EFE6"/>
<path d="M24.4004 24.32V106.643L28.0604 112.115L31.9156 106.339C31.9644 106.254 32.0498 106.205 32.1108 106.145C32.1596 106.096 32.1962 106.047 32.245 106.011C32.3792 105.926 32.5256 105.865 32.6842 105.828C32.7574 105.816 32.8428 105.828 32.916 105.828C32.9892 105.828 33.0746 105.816 33.1478 105.828C33.3064 105.865 33.4528 105.926 33.587 106.011C33.6602 106.06 33.709 106.132 33.77 106.193C33.8188 106.242 33.8798 106.278 33.9286 106.351L37.8204 112.115L41.6756 106.339C41.7366 106.242 41.822 106.181 41.9074 106.108C41.944 106.072 41.9684 106.035 42.005 106.011C42.1392 105.926 42.2856 105.865 42.4442 105.828C42.5174 105.816 42.6028 105.828 42.676 105.828C42.7492 105.828 42.8346 105.816 42.9078 105.828C43.0664 105.865 43.2128 105.914 43.347 106.011C43.4202 106.06 43.469 106.132 43.53 106.193C43.5788 106.242 43.652 106.291 43.6886 106.351L47.5804 112.115L51.4356 106.339C51.4966 106.242 51.582 106.181 51.6674 106.108C51.704 106.072 51.7284 106.035 51.765 106.011C51.8992 105.926 52.0456 105.865 52.2042 105.828C52.2774 105.816 52.3628 105.828 52.436 105.828C52.5092 105.828 52.5946 105.816 52.6678 105.828C52.8264 105.865 52.9728 105.914 53.107 106.011C53.1802 106.06 53.229 106.132 53.29 106.193C53.3388 106.242 53.412 106.291 53.4486 106.351L57.3404 112.115L61.1956 106.339C61.2566 106.242 61.342 106.181 61.4274 106.12C61.464 106.084 61.4884 106.035 61.5372 106.011C61.6714 105.926 61.8178 105.865 61.9764 105.828C62.0496 105.816 62.135 105.828 62.2082 105.828C62.2814 105.828 62.3668 105.816 62.44 105.828C62.5986 105.865 62.745 105.914 62.8792 106.011C62.9646 106.06 63.0134 106.145 63.0744 106.205C63.1232 106.254 63.1842 106.291 63.2208 106.351L67.1004 112.115L70.9556 106.339C71.0166 106.242 71.102 106.181 71.1874 106.12C71.224 106.084 71.2484 106.035 71.2972 106.011C71.4314 105.926 71.5778 105.865 71.7364 105.828C71.8096 105.816 71.895 105.828 71.9682 105.828C72.0414 105.828 72.1268 105.816 72.2 105.828C72.3586 105.865 72.505 105.914 72.6392 106.011C72.7246 106.06 72.7734 106.145 72.8344 106.205C72.8832 106.254 72.9442 106.291 72.9808 106.351L76.8604 112.115L80.7156 106.339C80.801 106.218 80.8986 106.12 81.0206 106.035C81.0328 106.023 81.045 106.011 81.0572 105.999C81.0694 105.987 81.0816 105.987 81.0938 105.974C81.2036 105.901 81.3378 105.853 81.4598 105.828C81.472 105.828 81.4842 105.816 81.4842 105.816C81.5086 105.816 81.533 105.816 81.5452 105.816C81.6306 105.804 81.6794 105.792 81.7404 105.792C81.8014 105.792 81.8502 105.804 81.9112 105.816C81.9356 105.816 81.96 105.816 81.9722 105.816C81.9844 105.816 81.9966 105.828 81.9966 105.828C82.1308 105.853 82.2528 105.914 82.3748 105.987C82.387 105.999 82.3992 105.999 82.4114 106.011C82.4236 106.023 82.4358 106.035 82.448 106.047C82.5578 106.132 82.6676 106.23 82.753 106.351L86.6204 112.115L90.2804 106.643V98.496V23.104C90.2804 22.8122 90.317 22.5325 90.3658 22.2528C90.378 22.1798 90.3902 22.119 90.4024 22.0461C90.4634 21.7664 90.5366 21.4989 90.6464 21.2435C90.7318 21.049 90.8172 20.8544 90.927 20.672H28.0604C26.0474 20.672 24.4004 22.3136 24.4004 24.32ZM53.6804 96.064C53.6804 96.7328 53.1314 97.28 52.4604 97.28H45.1404C44.4694 97.28 43.9204 96.7328 43.9204 96.064V85.12C43.9204 84.4512 44.4694 83.904 45.1404 83.904H52.4604C53.1314 83.904 53.6804 84.4512 53.6804 85.12V96.064ZM67.1004 96.064C67.1004 96.7328 66.5514 97.28 65.8804 97.28H58.5604C57.8894 97.28 57.3404 96.7328 57.3404 96.064V85.12C57.3404 84.4512 57.8894 83.904 58.5604 83.904H65.8804C66.5514 83.904 67.1004 84.4512 67.1004 85.12V96.064ZM80.5204 85.12V96.064C80.5204 96.7328 79.9714 97.28 79.3004 97.28H71.9804C71.3094 97.28 70.7604 96.7328 70.7604 96.064V85.12C70.7604 84.4512 71.3094 83.904 71.9804 83.904H79.3004C79.9714 83.904 80.5204 84.4512 80.5204 85.12ZM53.0704 32.832H78.6904C79.3614 32.832 79.9104 33.3792 79.9104 34.048C79.9104 34.7168 79.3614 35.264 78.6904 35.264H53.0704C52.3994 35.264 51.8504 34.7168 51.8504 34.048C51.8504 33.3792 52.3994 32.832 53.0704 32.832ZM53.0704 48.64H78.6904C79.3614 48.64 79.9104 49.1872 79.9104 49.856C79.9104 50.5248 79.3614 51.072 78.6904 51.072H53.0704C52.3994 51.072 51.8504 50.5248 51.8504 49.856C51.8504 49.1872 52.3994 48.64 53.0704 48.64ZM53.0704 64.448H78.6904C79.3614 64.448 79.9104 64.9952 79.9104 65.664C79.9104 66.3328 79.3614 66.88 78.6904 66.88H53.0704C52.3994 66.88 51.8504 66.3328 51.8504 65.664C51.8504 64.9952 52.3994 64.448 53.0704 64.448ZM40.8704 27.968C44.2376 27.968 46.9704 30.6918 46.9704 34.048C46.9704 37.4042 44.2376 40.128 40.8704 40.128C37.5032 40.128 34.7704 37.4042 34.7704 34.048C34.7704 30.6918 37.5032 27.968 40.8704 27.968ZM40.8704 43.776C44.2376 43.776 46.9704 46.4998 46.9704 49.856C46.9704 53.2122 44.2376 55.936 40.8704 55.936C37.5032 55.936 34.7704 53.2122 34.7704 49.856C34.7704 46.4998 37.5032 43.776 40.8704 43.776ZM40.8704 59.584C44.2376 59.584 46.9704 62.3078 46.9704 65.664C46.9704 69.0202 44.2376 71.744 40.8704 71.744C37.5032 71.744 34.7704 69.0202 34.7704 65.664C34.7704 62.3078 37.5032 59.584 40.8704 59.584ZM35.9904 91.2H34.7704C32.7574 91.2 31.1104 89.5584 31.1104 87.552C31.1104 85.7523 32.428 84.2566 34.1604 83.9648V83.296C34.1604 82.6272 34.7094 82.08 35.3804 82.08C36.0514 82.08 36.6004 82.6272 36.6004 83.296V83.904H38.4304C39.1014 83.904 39.6504 84.4512 39.6504 85.12C39.6504 85.7888 39.1014 86.336 38.4304 86.336H34.7704C34.0994 86.336 33.5504 86.8832 33.5504 87.552C33.5504 88.2208 34.0994 88.768 34.7704 88.768H35.9904C38.0034 88.768 39.6504 90.4096 39.6504 92.416C39.6504 94.2157 38.3328 95.7114 36.6004 96.0032V96.672C36.6004 97.3408 36.0514 97.888 35.3804 97.888C34.7094 97.888 34.1604 97.3408 34.1604 96.672V96.064H32.3304C31.6594 96.064 31.1104 95.5168 31.1104 94.848C31.1104 94.1792 31.6594 93.632 32.3304 93.632H35.9904C36.6614 93.632 37.2104 93.0848 37.2104 92.416C37.2104 91.7472 36.6614 91.2 35.9904 91.2Z" fill="#F3EFE6"/>
</g>
<defs>
<clipPath id="clip0">
<rect width="73.2" height="91.4432" fill="white" transform="translate(24.4004 20.672)"/>
</clipPath>
</defs>
</svg>
