<svg width="23" height="16" viewBox="0 0 23 16" fill="none" xmlns="http://www.w3.org/2000/svg">
<path d="M19.1911 13.9893C19.1271 13.9893 19.0641 13.9739 19.0073 13.9445C18.9505 13.9151 18.9015 13.8725 18.8646 13.8203C18.8276 13.7681 18.8038 13.7078 18.7949 13.6444C18.7861 13.581 18.7927 13.5165 18.814 13.4562C19.2004 12.3592 19.3182 11.1855 19.1575 10.0336C18.9968 8.88174 18.5622 7.78517 17.8901 6.83591C17.2181 5.88665 16.3283 5.11236 15.2953 4.57799C14.2622 4.04361 13.1161 3.76473 11.9531 3.76473C10.79 3.76473 9.64389 4.04361 8.61086 4.57799C7.57783 5.11236 6.68799 5.88665 6.01598 6.83591C5.34396 7.78517 4.90935 8.88174 4.74861 10.0336C4.58787 11.1855 4.70568 12.3592 5.09215 13.4562C5.11139 13.5061 5.12042 13.5593 5.11872 13.6128C5.11703 13.6662 5.10462 13.7188 5.08225 13.7673C5.05988 13.8159 5.028 13.8595 4.98849 13.8955C4.94897 13.9316 4.90264 13.9593 4.85222 13.9771C4.80179 13.995 4.74831 14.0025 4.69493 13.9993C4.64155 13.996 4.58936 13.9822 4.54144 13.9584C4.49352 13.9347 4.45085 13.9016 4.41595 13.8611C4.38105 13.8205 4.35463 13.7734 4.33825 13.7225C3.90898 12.5049 3.77798 11.2021 3.95622 9.92333C4.13447 8.6446 4.61676 7.42726 5.36265 6.37343C6.10854 5.31959 7.09627 4.45999 8.24298 3.86674C9.3897 3.27348 10.662 2.96387 11.9531 2.96387C13.2441 2.96387 14.5164 3.27348 15.6631 3.86674C16.8098 4.45999 17.7976 5.31959 18.5435 6.37343C19.2894 7.42726 19.7716 8.6446 19.9499 9.92333C20.1281 11.2021 19.9971 12.5049 19.5679 13.7225C19.5403 13.8005 19.4893 13.868 19.4219 13.9157C19.3544 13.9635 19.2738 13.9892 19.1911 13.9893Z" fill="#FFC627"/>
<path d="M11.9527 2.07213C11.8466 2.07213 11.7449 2.02999 11.6699 1.95499C11.5949 1.87998 11.5527 1.77826 11.5527 1.67218V0.399948C11.5527 0.293875 11.5949 0.192147 11.6699 0.117142C11.7449 0.0421373 11.8466 0 11.9527 0C12.0588 0 12.1605 0.0421373 12.2355 0.117142C12.3105 0.192147 12.3526 0.293875 12.3526 0.399948V1.67218C12.3526 1.77826 12.3105 1.87998 12.2355 1.95499C12.1605 2.02999 12.0588 2.07213 11.9527 2.07213Z" fill="#FFC627"/>
<path d="M22.5909 11.4395H21.3199C21.2138 11.4395 21.1121 11.3974 21.0371 11.3224C20.9621 11.2474 20.9199 11.1457 20.9199 11.0396C20.9199 10.9335 20.9621 10.8318 21.0371 10.7568C21.1121 10.6818 21.2138 10.6396 21.3199 10.6396H22.5909C22.697 10.6396 22.7987 10.6818 22.8737 10.7568C22.9487 10.8318 22.9909 10.9335 22.9909 11.0396C22.9909 11.1457 22.9487 11.2474 22.8737 11.3224C22.7987 11.3974 22.697 11.4395 22.5909 11.4395Z" fill="#FFC627"/>
<path d="M2.58505 11.4395H1.31401C1.20794 11.4395 1.10621 11.3974 1.0312 11.3224C0.9562 11.2474 0.914062 11.1457 0.914062 11.0396C0.914062 10.9335 0.9562 10.8318 1.0312 10.7568C1.10621 10.6818 1.20794 10.6396 1.31401 10.6396H2.58625C2.69232 10.6396 2.79405 10.6818 2.86905 10.7568C2.94406 10.8318 2.98619 10.9335 2.98619 11.0396C2.98619 11.1457 2.94406 11.2474 2.86905 11.3224C2.79405 11.3974 2.69232 11.4395 2.58625 11.4395H2.58505Z" fill="#FFC627"/>
<path d="M8.23025 2.84464C8.15226 2.84483 8.07591 2.82222 8.01061 2.77959C7.9453 2.73695 7.89389 2.67615 7.8627 2.60467L7.35716 1.43603C7.33628 1.38781 7.32511 1.33596 7.32427 1.28342C7.32343 1.23089 7.33295 1.1787 7.35228 1.12985C7.37161 1.08099 7.40038 1.03642 7.43693 0.998681C7.47349 0.960942 7.51712 0.930772 7.56533 0.909895C7.66271 0.867731 7.77284 0.865976 7.87151 0.905016C7.92037 0.924347 7.96494 0.953111 8.00268 0.989666C8.04042 1.02622 8.07059 1.06985 8.09147 1.11807L8.597 2.28551C8.62357 2.34639 8.63456 2.41293 8.62897 2.47912C8.62339 2.54531 8.6014 2.60907 8.56501 2.66463C8.52861 2.7202 8.47895 2.76583 8.4205 2.79739C8.36206 2.82896 8.29667 2.84547 8.23025 2.84544V2.84464Z" fill="#FFC627"/>
<path d="M20.5498 7.71703C20.4576 7.71734 20.3682 7.68584 20.2966 7.62785C20.225 7.56986 20.1757 7.48893 20.1569 7.39874C20.1381 7.30855 20.151 7.21463 20.1934 7.13285C20.2358 7.05108 20.3052 6.98646 20.3898 6.94993L21.5568 6.44439C21.6539 6.40393 21.7629 6.40329 21.8604 6.44261C21.9579 6.48194 22.036 6.55807 22.0778 6.65453C22.1196 6.75099 22.1217 6.86002 22.0837 6.95805C22.0457 7.05607 21.9707 7.13519 21.8748 7.1783L20.7077 7.68383C20.6579 7.70552 20.6041 7.71682 20.5498 7.71703Z" fill="#FFC627"/>
<path d="M3.36054 7.70565C3.3055 7.70571 3.25104 7.69441 3.20056 7.67245L2.03312 7.16532C1.93585 7.12289 1.85942 7.04356 1.82064 6.94478C1.78186 6.84599 1.78391 6.73585 1.82634 6.63858C1.86877 6.54132 1.9481 6.46489 2.04688 6.42611C2.14567 6.38733 2.25581 6.38938 2.35307 6.43181L3.52012 6.94015C3.60445 6.97683 3.67357 7.04145 3.71582 7.12314C3.75808 7.20482 3.77089 7.29857 3.75211 7.38859C3.73332 7.47862 3.68409 7.55942 3.61269 7.61739C3.5413 7.67536 3.45211 7.70695 3.36014 7.70685L3.36054 7.70565Z" fill="#FFC627"/>
<path d="M15.6869 2.84856C15.6205 2.84852 15.5551 2.83196 15.4967 2.80037C15.4383 2.76877 15.3887 2.72314 15.3524 2.66758C15.316 2.61203 15.2941 2.5483 15.2885 2.48214C15.283 2.41598 15.2939 2.34948 15.3205 2.28863L15.8276 1.12198C15.8701 1.02471 15.9494 0.948284 16.0482 0.909506C16.147 0.870729 16.2571 0.87278 16.3544 0.91521C16.4516 0.957639 16.5281 1.03697 16.5668 1.13575C16.6056 1.23453 16.6036 1.34467 16.5611 1.44194L16.054 2.60859C16.0228 2.68001 15.9715 2.74076 15.9063 2.78339C15.841 2.82602 15.7648 2.84867 15.6869 2.84856Z" fill="#FFC627"/>
<path d="M5.32829 4.81535C5.22222 4.81533 5.12051 4.77318 5.04552 4.69817L4.59558 4.24822C4.52059 4.17318 4.47848 4.07141 4.47852 3.96532C4.47855 3.85922 4.52074 3.75749 4.59578 3.6825C4.67083 3.6075 4.77259 3.56539 4.87869 3.56543C4.98478 3.56547 5.08651 3.60765 5.16151 3.6827L5.61145 4.13264C5.66739 4.1886 5.70548 4.25989 5.72089 4.3375C5.7363 4.41511 5.72835 4.49554 5.69803 4.56863C5.66772 4.64172 5.61641 4.70417 5.55059 4.74809C5.48477 4.792 5.40741 4.81541 5.32829 4.81535Z" fill="#FFC627"/>
<path d="M18.576 4.81535C18.4969 4.81541 18.4196 4.792 18.3537 4.74809C18.2879 4.70417 18.2366 4.64172 18.2063 4.56863C18.176 4.49554 18.168 4.41511 18.1834 4.3375C18.1989 4.25989 18.2369 4.1886 18.2929 4.13264L18.7428 3.6827C18.78 3.64554 18.824 3.61605 18.8726 3.59593C18.9211 3.57581 18.9731 3.56545 19.0256 3.56543C19.0782 3.56541 19.1302 3.57574 19.1787 3.59583C19.2273 3.61591 19.2714 3.64536 19.3085 3.6825C19.3457 3.71963 19.3752 3.76372 19.3953 3.81224C19.4154 3.86077 19.4258 3.91278 19.4258 3.96532C19.4258 4.01785 19.4155 4.06987 19.3954 4.11841C19.3753 4.16695 19.3459 4.21106 19.3087 4.24822L18.8588 4.70016C18.7835 4.77444 18.6818 4.81586 18.576 4.81535Z" fill="#FFC627"/>
<path d="M18.7504 14.0363C19.2819 14.0363 19.8022 14.1898 20.2486 14.4784L20.6501 13.7881C20.0811 13.4279 19.4216 13.2367 18.7482 13.2367C18.0748 13.2367 17.4152 13.4279 16.8462 13.7881C16.3999 14.0765 15.8798 14.2299 15.3484 14.2299C14.817 14.2299 14.2969 14.0765 13.8506 13.7881C13.2817 13.4278 12.6221 13.2365 11.9487 13.2365C11.2752 13.2365 10.6157 13.4278 10.0467 13.7881C9.60602 14.088 9.08222 14.2419 8.54931 14.228C8.01642 14.2418 7.49266 14.0879 7.0519 13.7881C6.48908 13.4152 5.82595 13.2228 5.15095 13.2365C4.47599 13.223 3.81291 13.4154 3.25 13.7881L3.65595 14.4784C4.09631 14.1778 4.61997 14.0232 5.15295 14.0364C5.68595 14.0232 6.20963 14.1778 6.64996 14.4784C7.21299 14.8511 7.87621 15.0435 8.55131 15.0299C9.22644 15.0437 9.88973 14.8513 10.4527 14.4784C10.899 14.1899 11.4192 14.0364 11.9507 14.0364C12.4821 14.0364 13.0023 14.1899 13.4487 14.4784C14.0175 14.8387 14.6771 15.0299 15.3504 15.0299C16.0238 15.0299 16.6833 14.8387 17.2522 14.4784C17.6986 14.1898 18.2188 14.0363 18.7504 14.0363Z" fill="#FFC627"/>
</svg>
