<svg width="17" height="18" viewBox="0 0 17 18" fill="none" xmlns="http://www.w3.org/2000/svg">
<path d="M11.3757 7.523C11.5584 7.523 11.7067 7.36245 11.7067 7.16465V2.86448C11.7067 1.87689 10.9647 1.07275 10.0518 1.07275H2.77014C1.85731 1.07275 1.11523 1.87689 1.11523 2.86448V15.765C1.11523 16.7526 1.85731 17.5567 2.77014 17.5567H10.0518C10.9647 17.5567 11.7067 16.7526 11.7067 15.765V11.4648C11.7067 11.267 11.5584 11.1065 11.3757 11.1065C11.193 11.1065 11.0447 11.267 11.0447 11.4648V15.765C11.0447 16.3577 10.5993 16.84 10.0518 16.84H2.77014C2.22269 16.84 1.77719 16.3577 1.77719 15.765V2.86448C1.77719 2.27176 2.22269 1.78944 2.77014 1.78944H10.0518C10.5993 1.78944 11.0447 2.27176 11.0447 2.86448V7.16465C11.0447 7.36245 11.193 7.523 11.3757 7.523Z" fill="white" stroke="white" stroke-width="0.5"/>
<path d="M16.0104 8.95654H5.41889C5.23618 8.95654 5.08789 9.11709 5.08789 9.3149C5.08789 9.51271 5.23618 9.67323 5.41889 9.67323H16.0104C16.1931 9.67323 16.3414 9.51267 16.3414 9.31487C16.3414 9.11706 16.1931 8.95654 16.0104 8.95654Z" fill="white" stroke="white" stroke-width="0.5"/>
<path d="M16.2421 9.06252L14.2562 6.91243C14.1272 6.77268 13.9173 6.77268 13.7882 6.91243C13.6591 7.05219 13.6591 7.27939 13.7882 7.41915L15.5398 9.31552L13.7882 11.2119C13.6591 11.3517 13.6591 11.5789 13.7882 11.7186C13.8531 11.7881 13.9378 11.8233 14.0226 11.8233C14.1073 11.8233 14.192 11.7882 14.2562 11.7193L16.2421 9.56927C16.3712 9.42948 16.3712 9.20227 16.2421 9.06252Z" fill="white" stroke="white" stroke-width="0.5"/>
</svg>
