<svg width="27" height="20" viewBox="0 0 27 20" fill="none" xmlns="http://www.w3.org/2000/svg">
<path d="M19.1911 14.1353C19.1271 14.1353 19.0641 14.1199 19.0073 14.0905C18.9505 14.0611 18.9015 14.0185 18.8646 13.9663C18.8276 13.9141 18.8038 13.8538 18.7949 13.7904C18.7861 13.727 18.7927 13.6625 18.814 13.6022C19.2004 12.5052 19.3182 11.3315 19.1575 10.1796C18.9968 9.02773 18.5622 7.93117 17.8901 6.98191C17.2181 6.03264 16.3283 5.25836 15.2953 4.72398C14.2622 4.18961 13.1161 3.91073 11.9531 3.91073C10.79 3.91073 9.64389 4.18961 8.61086 4.72398C7.57783 5.25836 6.68799 6.03264 6.01598 6.98191C5.34396 7.93117 4.90935 9.02773 4.74861 10.1796C4.58787 11.3315 4.70568 12.5052 5.09215 13.6022C5.11139 13.652 5.12042 13.7053 5.11872 13.7587C5.11703 13.8122 5.10462 13.8648 5.08225 13.9133C5.05988 13.9619 5.028 14.0055 4.98849 14.0415C4.94897 14.0776 4.90264 14.1053 4.85222 14.1231C4.80179 14.1409 4.74831 14.1485 4.69493 14.1453C4.64155 14.142 4.58936 14.1282 4.54144 14.1044C4.49352 14.0807 4.45085 14.0476 4.41595 14.007C4.38105 13.9665 4.35463 13.9194 4.33825 13.8685C3.90898 12.6509 3.77798 11.3481 3.95622 10.0693C4.13447 8.7906 4.61676 7.57326 5.36265 6.51942C6.10854 5.46559 7.09627 4.60599 8.24298 4.01273C9.3897 3.41948 10.662 3.10986 11.9531 3.10986C13.2441 3.10986 14.5164 3.41948 15.6631 4.01273C16.8098 4.60599 17.7976 5.46559 18.5435 6.51942C19.2894 7.57326 19.7716 8.7906 19.9499 10.0693C20.1281 11.3481 19.9971 12.6509 19.5679 13.8685C19.5403 13.9465 19.4893 14.014 19.4219 14.0617C19.3544 14.1095 19.2738 14.1352 19.1911 14.1353Z" fill="white"/>
<path d="M11.9527 2.21813C11.8466 2.21813 11.7449 2.17599 11.6699 2.10098C11.5949 2.02598 11.5527 1.92425 11.5527 1.81818V0.545944C11.5527 0.439871 11.5949 0.338143 11.6699 0.263138C11.7449 0.188133 11.8466 0.145996 11.9527 0.145996C12.0588 0.145996 12.1605 0.188133 12.2355 0.263138C12.3105 0.338143 12.3526 0.439871 12.3526 0.545944V1.81818C12.3526 1.92425 12.3105 2.02598 12.2355 2.10098C12.1605 2.17599 12.0588 2.21813 11.9527 2.21813Z" fill="white"/>
<path d="M22.5909 11.5855H21.3199C21.2138 11.5855 21.1121 11.5434 21.0371 11.4684C20.9621 11.3934 20.9199 11.2917 20.9199 11.1856C20.9199 11.0795 20.9621 10.9778 21.0371 10.9028C21.1121 10.8278 21.2138 10.7856 21.3199 10.7856H22.5909C22.697 10.7856 22.7987 10.8278 22.8737 10.9028C22.9487 10.9778 22.9909 11.0795 22.9909 11.1856C22.9909 11.2917 22.9487 11.3934 22.8737 11.4684C22.7987 11.5434 22.697 11.5855 22.5909 11.5855Z" fill="white"/>
<path d="M2.58505 11.5855H1.31401C1.20794 11.5855 1.10621 11.5434 1.0312 11.4684C0.9562 11.3934 0.914062 11.2917 0.914062 11.1856C0.914062 11.0795 0.9562 10.9778 1.0312 10.9028C1.10621 10.8278 1.20794 10.7856 1.31401 10.7856H2.58625C2.69232 10.7856 2.79405 10.8278 2.86905 10.9028C2.94406 10.9778 2.98619 11.0795 2.98619 11.1856C2.98619 11.2917 2.94406 11.3934 2.86905 11.4684C2.79405 11.5434 2.69232 11.5855 2.58625 11.5855H2.58505Z" fill="white"/>
<path d="M8.23025 2.99015C8.15226 2.99034 8.07591 2.96773 8.01061 2.92509C7.9453 2.88246 7.89389 2.82166 7.8627 2.75018L7.35716 1.58153C7.33628 1.53332 7.32511 1.48146 7.32427 1.42893C7.32343 1.37639 7.33295 1.32421 7.35228 1.27535C7.37161 1.2265 7.40038 1.18193 7.43693 1.14419C7.47349 1.10645 7.51712 1.07628 7.56533 1.0554C7.66271 1.01324 7.77284 1.01148 7.87151 1.05052C7.92037 1.06985 7.96494 1.09862 8.00268 1.13517C8.04042 1.17173 8.07059 1.21536 8.09147 1.26358L8.597 2.43102C8.62357 2.4919 8.63456 2.55844 8.62897 2.62463C8.62339 2.69082 8.6014 2.75458 8.56501 2.81014C8.52861 2.86571 8.47895 2.91134 8.4205 2.9429C8.36206 2.97447 8.29667 2.99098 8.23025 2.99095V2.99015Z" fill="white"/>
<path d="M20.5478 7.86302C20.4557 7.86334 20.3663 7.83184 20.2947 7.77385C20.2231 7.71585 20.1737 7.63492 20.1549 7.54473C20.1361 7.45454 20.149 7.36062 20.1914 7.27885C20.2339 7.19707 20.3033 7.13246 20.3878 7.09592L21.5549 6.59039C21.6519 6.54992 21.761 6.54928 21.8584 6.58861C21.9559 6.62794 22.034 6.70406 22.0758 6.80052C22.1176 6.89699 22.1197 7.00602 22.0818 7.10404C22.0438 7.20206 21.9687 7.28119 21.8728 7.32429L20.7058 7.82983C20.6559 7.85152 20.6022 7.86281 20.5478 7.86302Z" fill="white"/>
<path d="M3.36054 7.85165C3.3055 7.85171 3.25104 7.84041 3.20056 7.81845L2.03312 7.31131C1.93585 7.26888 1.85942 7.18955 1.82064 7.09077C1.78186 6.99199 1.78391 6.88185 1.82634 6.78458C1.86877 6.68731 1.9481 6.61088 2.04688 6.5721C2.14567 6.53333 2.25581 6.53538 2.35307 6.57781L3.52012 7.08614C3.60445 7.12283 3.67357 7.18745 3.71582 7.26913C3.75808 7.35082 3.77089 7.44456 3.75211 7.53459C3.73332 7.62461 3.68409 7.70542 3.61269 7.76338C3.5413 7.82135 3.45211 7.85295 3.36014 7.85284L3.36054 7.85165Z" fill="white"/>
<path d="M15.6849 2.99455C15.6185 2.99452 15.5532 2.97796 15.4948 2.94636C15.4364 2.91477 15.3868 2.86914 15.3504 2.81358C15.3141 2.75802 15.2921 2.69429 15.2866 2.62813C15.281 2.56198 15.292 2.49547 15.3185 2.43463L15.8257 1.26798C15.8681 1.17071 15.9474 1.09428 16.0462 1.0555C16.145 1.01672 16.2551 1.01878 16.3524 1.06121C16.4497 1.10363 16.5261 1.18297 16.5649 1.28175C16.6037 1.38053 16.6016 1.49067 16.5592 1.58794L16.0521 2.75458C16.0209 2.826 15.9695 2.88676 15.9043 2.92939C15.8391 2.97202 15.7628 2.99467 15.6849 2.99455Z" fill="white"/>
<path d="M5.32829 4.96184C5.22222 4.96181 5.12051 4.91966 5.04552 4.84465L4.59558 4.39471C4.52059 4.31966 4.47848 4.2179 4.47852 4.1118C4.47855 4.00571 4.52074 3.90397 4.59578 3.82898C4.67083 3.75399 4.77259 3.71188 4.87869 3.71191C4.98478 3.71195 5.08651 3.75413 5.16151 3.82918L5.61145 4.27912C5.66739 4.33508 5.70548 4.40637 5.72089 4.48398C5.7363 4.56159 5.72835 4.64203 5.69803 4.71511C5.66772 4.7882 5.61641 4.85065 5.55059 4.89457C5.48477 4.93849 5.40741 4.9619 5.32829 4.96184Z" fill="white"/>
<path d="M18.576 4.96183C18.4969 4.9619 18.4196 4.93849 18.3537 4.89457C18.2879 4.85065 18.2366 4.7882 18.2063 4.71511C18.176 4.64203 18.168 4.56159 18.1834 4.48398C18.1989 4.40637 18.2369 4.33508 18.2929 4.27912L18.7428 3.82918C18.78 3.79202 18.824 3.76254 18.8726 3.74242C18.9211 3.7223 18.9731 3.71193 19.0256 3.71191C19.0782 3.7119 19.1302 3.72222 19.1787 3.74231C19.2273 3.7624 19.2714 3.79185 19.3085 3.82898C19.3457 3.86611 19.3752 3.9102 19.3953 3.95873C19.4154 4.00726 19.4258 4.05927 19.4258 4.1118C19.4258 4.16433 19.4155 4.21636 19.3954 4.2649C19.3753 4.31344 19.3459 4.35755 19.3087 4.39471L18.8588 4.84665C18.7835 4.92093 18.6818 4.96234 18.576 4.96183Z" fill="white"/>
<path d="M18.7504 14.1823C19.2819 14.1823 19.8022 14.3358 20.2486 14.6244L20.6501 13.9341C20.0811 13.5739 19.4216 13.3827 18.7482 13.3827C18.0748 13.3827 17.4152 13.5739 16.8462 13.9341C16.3999 14.2225 15.8798 14.3759 15.3484 14.3759C14.817 14.3759 14.2969 14.2225 13.8506 13.9341C13.2817 13.5738 12.6221 13.3825 11.9487 13.3825C11.2752 13.3825 10.6157 13.5738 10.0467 13.9341C9.60602 14.234 9.08222 14.3879 8.54931 14.374C8.01642 14.3878 7.49266 14.2339 7.0519 13.9341C6.48908 13.5612 5.82595 13.3688 5.15095 13.3825C4.47599 13.369 3.81291 13.5614 3.25 13.9341L3.65595 14.6244C4.09631 14.3238 4.61997 14.1692 5.15295 14.1824C5.68595 14.1692 6.20963 14.3238 6.64996 14.6244C7.21299 14.9971 7.87621 15.1895 8.55131 15.1759C9.22644 15.1897 9.88973 14.9973 10.4527 14.6244C10.899 14.3359 11.4192 14.1824 11.9507 14.1824C12.4821 14.1824 13.0023 14.3359 13.4487 14.6244C14.0175 14.9847 14.6771 15.1759 15.3504 15.1759C16.0238 15.1759 16.6833 14.9847 17.2522 14.6244C17.6986 14.3358 18.2188 14.1823 18.7504 14.1823Z" fill="white"/>
<path d="M21.8175 19.8271C19.0976 19.8271 16.8848 17.6143 16.8848 14.8945C16.8848 12.1746 19.0976 9.96176 21.8175 9.96176C24.5373 9.96176 26.7502 12.1746 26.7502 14.8945C26.7502 17.6143 24.5373 19.8271 21.8175 19.8271ZM23.7146 14.515H22.1969V12.9973C22.1969 12.8966 22.1569 12.8001 22.0858 12.729C22.0146 12.6578 21.9181 12.6178 21.8175 12.6178C21.7168 12.6178 21.6203 12.6578 21.5492 12.729C21.478 12.8001 21.438 12.8966 21.438 12.9973V14.515H19.9203C19.8196 14.515 19.7231 14.555 19.652 14.6262C19.5808 14.6973 19.5408 14.7938 19.5408 14.8945C19.5408 14.9951 19.5808 15.0916 19.652 15.1628C19.7231 15.2339 19.8196 15.2739 19.9203 15.2739H21.438V16.7916C21.438 16.8923 21.478 16.9888 21.5492 17.0599C21.6203 17.1311 21.7168 17.1711 21.8175 17.1711C21.9181 17.1711 22.0146 17.1311 22.0858 17.0599C22.1569 16.9888 22.1969 16.8923 22.1969 16.7916V15.2739H23.7146C23.8153 15.2739 23.9118 15.2339 23.983 15.1628C24.0541 15.0916 24.0941 14.9951 24.0941 14.8945C24.0941 14.7938 24.0541 14.6973 23.983 14.6262C23.9118 14.555 23.8153 14.515 23.7146 14.515Z" fill="white"/>
</svg>
