<svg width="17" height="16" viewBox="0 0 17 16" fill="none" xmlns="http://www.w3.org/2000/svg">
<path d="M15.7355 2.18165L15.4405 1.88667C15.3534 1.79958 15.2122 1.79961 15.1251 1.88667C15.038 1.97377 15.038 2.11495 15.1251 2.20202L15.4201 2.49699C15.7194 2.79622 15.7194 3.28308 15.4201 3.5823L15.0135 3.98887L12.4671 1.44255L12.8737 1.03597C13.1729 0.736748 13.6598 0.736748 13.9591 1.03597L14.3907 1.46758C14.4777 1.55465 14.619 1.55465 14.706 1.46758C14.7931 1.38052 14.7931 1.2393 14.706 1.15224L14.2744 0.720631C14.0452 0.491461 13.7405 0.365234 13.4164 0.365234C13.0922 0.365234 12.7875 0.491461 12.5583 0.720631L3.62098 9.65756C3.53388 9.74463 3.53388 9.88584 3.62098 9.9729C3.70804 10.06 3.84926 10.06 3.93633 9.9729L11.1689 2.74067L12.2844 3.85616L3.11209 13.028L2.38336 12.7006C2.35699 12.6887 2.33596 12.6677 2.32413 12.6414L1.99664 11.9126L3.20428 10.705C3.29137 10.618 3.29137 10.4767 3.20428 10.3897C3.11721 10.3026 2.97599 10.3026 2.88892 10.3897C2.88892 10.3897 1.57024 11.7088 1.56897 11.7102C1.51143 11.7705 1.50485 11.8547 1.48978 11.9335C1.47729 11.9987 0.875893 15.1366 0.87176 15.1582C0.849041 15.2767 0.88642 15.3984 0.971765 15.4838C1.04066 15.5527 1.13326 15.5904 1.22878 15.5904C1.25156 15.5904 1.27454 15.5882 1.29738 15.5838C1.29738 15.5838 4.63277 14.9446 4.63446 14.9443C4.67226 14.9366 4.71478 14.9155 4.74404 14.8882C4.74591 14.8865 15.7356 3.8977 15.7356 3.8977C16.2086 3.42459 16.2086 2.65477 15.7355 2.18165ZM1.48761 14.3141L1.49956 14.2517L2.20384 14.956L2.20054 14.9566L1.33256 15.1229L1.48761 14.3141ZM2.73316 14.8545L1.60099 13.7224L1.81626 12.5993L1.91727 12.8241C1.97389 12.9501 2.07446 13.0507 2.20051 13.1073L2.99231 13.4631L3.34817 14.255C3.40479 14.381 3.50539 14.4815 3.63138 14.5381L3.85637 14.6392L2.73316 14.8545ZM4.54308 14.4589L3.81423 14.1314C3.78789 14.1195 3.76683 14.0985 3.755 14.0721L3.42748 13.3433L12.5998 4.17151L13.7154 5.287L4.54308 14.4589ZM14.0307 4.97169L11.4843 2.42536L12.1517 1.75792L14.6982 4.30425L14.0307 4.97169Z" fill="white" stroke="white" stroke-width="0.2"/>
</svg>
