<svg width="23" height="23" viewBox="0 0 23 23" fill="none" xmlns="http://www.w3.org/2000/svg">
<g clip-path="url(#clip0)">
<path d="M9.29883 11.4999C9.29883 12.7156 10.2843 13.7011 11.5 13.7011C12.7157 13.7011 13.7012 12.7156 13.7012 11.4999C13.7012 10.2842 12.7157 9.29874 11.5 9.29874C10.2843 9.29874 9.29883 10.2842 9.29883 11.4999Z" fill="#FFC627"/>
<path d="M6.35251 7.60534C6.45832 7.31861 6.62713 7.05908 6.84647 6.84605C7.0595 6.62671 7.31885 6.4579 7.60576 6.35209C7.83844 6.26172 8.18799 6.15415 8.83181 6.12485C9.52827 6.09309 9.73709 6.08624 11.5003 6.08624C13.2636 6.08624 13.4725 6.09291 14.1687 6.12467C14.8126 6.15415 15.1623 6.26172 15.3948 6.35209C15.6817 6.4579 15.9412 6.62671 16.1541 6.84605C16.3734 7.05908 16.5422 7.31844 16.6482 7.60534C16.7386 7.83802 16.8462 8.18774 16.8755 8.83156C16.9072 9.52785 16.9141 9.73667 16.9141 11.5C16.9141 13.2632 16.9072 13.472 16.8755 14.1685C16.8462 14.8123 16.7386 15.1619 16.6482 15.3945C16.5422 15.6814 16.3736 15.9408 16.1543 16.1538C15.9412 16.3732 15.6819 16.542 15.395 16.6478C15.1623 16.7383 14.8126 16.8459 14.1687 16.8752C13.4725 16.907 13.2638 16.9136 11.5004 16.9136C9.73692 16.9136 9.5281 16.907 8.83198 16.8752C8.18816 16.8459 7.83844 16.7383 7.60576 16.6478C7.02985 16.4256 6.57466 15.9705 6.35251 15.3945C6.26214 15.1619 6.15457 14.8123 6.12509 14.1685C6.09333 13.472 6.08666 13.2632 6.08666 11.5C6.08666 9.73667 6.09333 9.52785 6.12509 8.83156C6.1544 8.18774 6.26196 7.83802 6.35251 7.60534ZM11.5003 14.8908C13.3731 14.8908 14.8913 13.3727 14.8913 11.4999C14.8913 9.627 13.3731 8.10895 11.5003 8.10895C9.62759 8.10895 8.10937 9.627 8.10937 11.4999C8.10937 13.3727 9.62759 14.8908 11.5003 14.8908ZM7.97531 8.76734C8.41295 8.76734 8.76776 8.41253 8.76776 7.97489C8.76776 7.53725 8.41295 7.18244 7.97531 7.18244C7.53767 7.18244 7.18286 7.53725 7.18286 7.97489C7.18304 8.41253 7.53767 8.76734 7.97531 8.76734Z" fill="#FFC627"/>
<path d="M11.5 -0.000152588C17.8503 -0.000152588 23 5.14954 23 11.4998C23 17.8502 17.8503 22.9998 11.5 22.9998C5.1497 22.9998 0 17.8502 0 11.4998C0 5.14954 5.1497 -0.000152588 11.5 -0.000152588ZM4.93632 14.2224C4.96825 14.9253 5.08003 15.4052 5.24323 15.8253C5.58628 16.7124 6.28748 17.4136 7.17451 17.7566C7.59443 17.9198 8.07453 18.0314 8.77731 18.0635C9.4815 18.0956 9.70646 18.1034 11.4998 18.1034C13.2934 18.1034 13.5182 18.0956 14.2225 18.0635C14.9253 18.0314 15.4054 17.9198 15.8253 17.7566C16.2661 17.5908 16.6651 17.3309 16.995 16.9949C17.3309 16.6652 17.5908 16.266 17.7566 15.8253C17.9198 15.4054 18.0316 14.9253 18.0635 14.2225C18.096 13.5182 18.1035 13.2932 18.1035 11.4998C18.1035 9.70648 18.096 9.48152 18.0637 8.77734C18.0317 8.07438 17.9201 7.59445 17.757 7.17436C17.5911 6.73374 17.3311 6.33453 16.995 6.00481C16.6653 5.66878 16.2661 5.4089 15.8255 5.24307C15.4054 5.07988 14.9255 4.96828 14.2225 4.93616C13.5183 4.90405 13.2934 4.89633 11.5 4.89633C9.70663 4.89633 9.48167 4.90405 8.77749 4.93634C8.07453 4.96828 7.5946 5.07988 7.17451 5.2429C6.73389 5.40872 6.33469 5.66878 6.00479 6.00481C5.66893 6.33471 5.40887 6.73374 5.24323 7.17436C5.07986 7.59445 4.96825 8.07438 4.93614 8.77734C4.90403 9.48152 4.89648 9.70648 4.89648 11.4998C4.89648 13.2932 4.90403 13.5182 4.93632 14.2224Z" fill="#FFC627"/>
</g>
<defs>
<clipPath id="clip0">
<rect width="23" height="23" fill="white" transform="matrix(-1 0 0 1 23 -6.10352e-05)"/>
</clipPath>
</defs>
</svg>
