<svg width="26" height="26" viewBox="0 0 26 26" fill="none" xmlns="http://www.w3.org/2000/svg">
<path d="M13 0C5.8318 0 0 5.8318 0 13C0 16.1395 1.11887 19.0225 2.97873 21.2715C2.9835 21.278 2.98393 21.2862 2.98913 21.2923C4.33203 22.9116 6.01857 24.1531 7.89793 24.9552C7.9196 24.9643 7.94083 24.9743 7.9625 24.9834C8.1146 25.0475 8.26843 25.1069 8.4227 25.165C8.48337 25.1879 8.54403 25.2113 8.60557 25.2334C8.7386 25.2811 8.8725 25.3262 9.00727 25.3695C9.0935 25.3972 9.17973 25.4245 9.26683 25.4505C9.386 25.4861 9.5056 25.5203 9.62607 25.5528C9.7318 25.5814 9.8384 25.6078 9.945 25.6334C10.0529 25.6594 10.1612 25.6854 10.27 25.7084C10.3913 25.7344 10.514 25.7573 10.637 25.7799C10.7358 25.7981 10.8342 25.8171 10.9339 25.8332C11.0704 25.8553 11.2077 25.8726 11.3455 25.8904C11.4344 25.9016 11.5228 25.9146 11.612 25.9242C11.768 25.9406 11.9253 25.9523 12.0831 25.9632C12.1563 25.9684 12.2291 25.9762 12.3028 25.9801C12.5329 25.9931 12.7656 26 13 26C13.2344 26 13.4671 25.9931 13.6981 25.9809C13.7718 25.977 13.8446 25.9692 13.9178 25.964C14.0755 25.9528 14.2328 25.9415 14.3888 25.925C14.4781 25.9155 14.5665 25.9025 14.6553 25.8912C14.7931 25.8735 14.9305 25.8561 15.067 25.834C15.1662 25.818 15.265 25.7989 15.3638 25.7807C15.4865 25.7582 15.6091 25.7352 15.7309 25.7092C15.8396 25.6858 15.9475 25.6603 16.0559 25.6343C16.1625 25.6083 16.2691 25.5818 16.3748 25.5537C16.4953 25.5216 16.6149 25.4869 16.734 25.4514C16.8211 25.4254 16.9074 25.3981 16.9936 25.3704C17.1284 25.327 17.2623 25.282 17.3953 25.2343C17.4564 25.2122 17.5171 25.1888 17.5782 25.1658C17.7329 25.1078 17.8863 25.048 18.0384 24.9843C18.06 24.9752 18.0813 24.9652 18.1029 24.9561C19.9819 24.154 21.6688 22.9125 23.0117 21.2931C23.0169 21.2871 23.0174 21.2784 23.0221 21.2723C24.8811 19.0225 26 16.1395 26 13C26 5.8318 20.1682 0 13 0ZM18.268 23.9287C18.2615 23.9317 18.2555 23.9352 18.249 23.9382C18.0943 24.0127 17.937 24.0829 17.7784 24.1514C17.7424 24.1666 17.7069 24.1822 17.6709 24.1973C17.5322 24.2554 17.3918 24.3104 17.2506 24.3633C17.1916 24.3854 17.1327 24.4071 17.0733 24.4279C16.9481 24.4725 16.8224 24.5154 16.6955 24.5561C16.6166 24.5813 16.5373 24.6051 16.458 24.6285C16.3453 24.6623 16.2322 24.6948 16.1178 24.7251C16.0216 24.7507 15.9246 24.7741 15.8275 24.7971C15.7257 24.8213 15.6243 24.846 15.5216 24.8677C15.4093 24.8915 15.2962 24.9119 15.1836 24.9323C15.0921 24.9492 15.0011 24.9669 14.9088 24.9817C14.7819 25.0016 14.6536 25.0176 14.5258 25.0337C14.4447 25.0441 14.3641 25.0562 14.2822 25.0649C14.1362 25.0805 13.9889 25.0904 13.842 25.1008C13.7765 25.1052 13.7115 25.1125 13.6452 25.116C13.4307 25.1273 13.2158 25.1333 13 25.1333C12.7842 25.1333 12.5693 25.1273 12.3552 25.116C12.2893 25.1125 12.2243 25.1056 12.1585 25.1008C12.0111 25.0909 11.8642 25.0805 11.7182 25.0649C11.6363 25.0562 11.5557 25.0441 11.4747 25.0337C11.3468 25.0176 11.2186 25.0016 11.0916 24.9817C10.9993 24.9669 10.9083 24.9492 10.8169 24.9323C10.7038 24.9119 10.5907 24.8911 10.4789 24.8677C10.3762 24.846 10.2743 24.8213 10.1729 24.7971C10.0759 24.7737 9.9788 24.7507 9.8826 24.7251C9.76863 24.6948 9.6551 24.6619 9.54243 24.6285C9.46313 24.6051 9.38383 24.5813 9.30497 24.5561C9.178 24.5154 9.0519 24.4725 8.9271 24.4279C8.86773 24.4066 8.8088 24.385 8.74987 24.3633C8.6086 24.3104 8.4682 24.2554 8.32953 24.1973C8.29357 24.1826 8.25847 24.167 8.2225 24.1518C8.0639 24.0838 7.9066 24.0132 7.75147 23.9386C7.74497 23.9356 7.7389 23.9326 7.7324 23.9291C6.2205 23.1976 4.88497 22.1594 3.8012 20.8984C4.63883 17.8139 7.01003 15.3274 10.0607 14.3381C10.1209 14.375 10.1838 14.4079 10.2457 14.4426C10.2821 14.4629 10.3181 14.4846 10.3549 14.5041C10.4841 14.5726 10.6149 14.6367 10.7488 14.6943C10.8515 14.7394 10.9577 14.7775 11.0634 14.8165C11.0842 14.8239 11.105 14.8321 11.1258 14.8395C11.7134 15.0475 12.3422 15.1667 13 15.1667C13.6578 15.1667 14.2866 15.0475 14.8737 14.8395C14.8945 14.8321 14.9153 14.8239 14.9361 14.8165C15.0419 14.7775 15.148 14.7394 15.2507 14.6943C15.3846 14.6367 15.5155 14.5726 15.6446 14.5041C15.6815 14.4842 15.7174 14.4629 15.7538 14.4426C15.8158 14.4079 15.8791 14.375 15.9397 14.3377C18.9904 15.3274 21.3612 17.8139 22.1992 20.8979C21.1155 22.1585 19.7799 23.1968 18.268 23.9287ZM8.23333 9.53333C8.23333 6.90517 10.3718 4.76667 13 4.76667C15.6282 4.76667 17.7667 6.90517 17.7667 9.53333C17.7667 11.2051 16.8996 12.6763 15.5931 13.5274C15.4223 13.6383 15.2447 13.7375 15.0622 13.8242C15.0406 13.8346 15.0193 13.8454 14.9977 13.8554C13.7427 14.4261 12.2573 14.4261 11.0023 13.8554C10.9807 13.8454 10.959 13.8346 10.9378 13.8242C10.7549 13.7375 10.5777 13.6383 10.4069 13.5274C9.10043 12.6763 8.23333 11.2051 8.23333 9.53333ZM22.8492 20.0733C21.8669 17.1726 19.6257 14.8282 16.7622 13.7146C17.9075 12.6828 18.6333 11.193 18.6333 9.53333C18.6333 6.4272 16.1061 3.9 13 3.9C9.89387 3.9 7.36667 6.4272 7.36667 9.53333C7.36667 11.193 8.0925 12.6828 9.23823 13.7146C6.37477 14.8287 4.13357 17.1726 3.1512 20.0733C1.71557 18.0804 0.866667 15.6381 0.866667 13C0.866667 6.30977 6.30977 0.866667 13 0.866667C19.6902 0.866667 25.1333 6.30977 25.1333 13C25.1333 15.6381 24.2844 18.0804 22.8492 20.0733Z" fill="white"/>
</svg>
