<svg width="44" height="44" viewBox="0 0 44 44" fill="none" xmlns="http://www.w3.org/2000/svg">
<path d="M22.2489 4.1252C12.196 3.98941 3.98893 12.1964 4.12471 22.2494C4.25877 31.8907 12.1092 39.7411 21.7505 39.8752C31.8052 40.0127 40.0105 31.8057 39.873 21.7527C39.7406 12.1097 31.8902 4.25926 22.2489 4.1252ZM33.1131 32.2482C33.0789 32.2853 33.0369 32.3143 32.9902 32.3333C32.9435 32.3523 32.8932 32.3608 32.8429 32.3581C32.7925 32.3555 32.7434 32.3419 32.6989 32.3181C32.6544 32.2944 32.6157 32.2611 32.5855 32.2207C31.8168 31.2151 30.8755 30.354 29.8054 29.6779C27.6174 28.2736 24.8451 27.5002 21.9997 27.5002C19.1543 27.5002 16.382 28.2736 14.194 29.6779C13.124 30.3537 12.1826 31.2145 11.4139 32.2199C11.3837 32.2603 11.345 32.2935 11.3005 32.3172C11.2561 32.341 11.2069 32.3547 11.1565 32.3573C11.1062 32.3599 11.0559 32.3514 11.0092 32.3324C10.9625 32.3134 10.9205 32.2844 10.8863 32.2474C8.36458 29.5252 6.93615 25.9682 6.87471 22.258C6.73463 13.8954 13.5967 6.89582 21.9628 6.8752C30.3288 6.85457 37.1247 13.6479 37.1247 22.0002C37.1276 25.7998 35.6947 29.4603 33.1131 32.2482Z" fill="#0D2240"/>
<path d="M22.001 12.375C20.3063 12.375 18.774 13.0101 17.6852 14.1642C16.5964 15.3184 16.0524 16.9142 16.1753 18.627C16.4245 22 19.0379 24.75 22.001 24.75C24.9641 24.75 27.5723 22 27.8267 18.6278C27.9539 16.9314 27.4142 15.3502 26.3073 14.1745C25.2142 13.0144 23.6845 12.375 22.001 12.375Z" fill="#0D2240"/>
</svg>
