<svg width="35" height="35" viewBox="0 0 35 35" fill="none" xmlns="http://www.w3.org/2000/svg">
<path d="M17.5 0C7.8505 0 0 7.8505 0 17.5C0 21.7262 1.50617 25.6072 4.00983 28.6347C4.01625 28.6434 4.01683 28.6545 4.02383 28.6627C5.83158 30.8426 8.10192 32.5138 10.6318 33.5936C10.661 33.6058 10.6896 33.6192 10.7188 33.6315C10.9235 33.7178 11.1306 33.7977 11.3383 33.8759C11.4199 33.9068 11.5016 33.9383 11.5844 33.9681C11.7635 34.0322 11.9437 34.0929 12.1252 34.1512C12.2412 34.1886 12.3573 34.2253 12.4746 34.2603C12.635 34.3082 12.796 34.3542 12.9582 34.398C13.1005 34.4365 13.244 34.4721 13.3875 34.5065C13.5328 34.5415 13.6786 34.5765 13.825 34.6074C13.9883 34.6424 14.1534 34.6733 14.3191 34.7037C14.4521 34.7282 14.5845 34.7538 14.7187 34.7754C14.9024 34.8052 15.0873 34.8285 15.2728 34.8524C15.3924 34.8676 15.5114 34.8851 15.6316 34.8979C15.8416 34.9201 16.0533 34.9358 16.2657 34.9504C16.3643 34.9574 16.4622 34.9679 16.5614 34.9732C16.8712 34.9907 17.1844 35 17.5 35C17.8156 35 18.1288 34.9907 18.4397 34.9743C18.5389 34.9691 18.6369 34.9586 18.7355 34.9516C18.9478 34.9364 19.1596 34.9212 19.3696 34.8991C19.4897 34.8862 19.6087 34.8687 19.7283 34.8536C19.9138 34.8297 20.0987 34.8063 20.2825 34.7766C20.4161 34.755 20.5491 34.7293 20.6821 34.7048C20.8472 34.6745 21.0122 34.6436 21.1762 34.6086C21.3226 34.5771 21.4678 34.5427 21.6137 34.5077C21.7572 34.4727 21.9007 34.4371 22.043 34.3992C22.2052 34.356 22.3662 34.3093 22.5266 34.2615C22.6438 34.2265 22.7599 34.1898 22.876 34.1524C23.0574 34.0941 23.2377 34.0334 23.4167 33.9692C23.499 33.9395 23.5807 33.908 23.6629 33.8771C23.8712 33.7989 24.0777 33.7184 24.2824 33.6327C24.3116 33.6204 24.3402 33.607 24.3693 33.5947C26.8987 32.515 29.1696 30.8438 30.9773 28.6638C30.9843 28.6557 30.9849 28.644 30.9913 28.6358C33.4938 25.6072 35 21.7262 35 17.5C35 7.8505 27.1495 0 17.5 0ZM24.5916 32.2117C24.5828 32.2157 24.5747 32.2204 24.5659 32.2245C24.3577 32.3248 24.1459 32.4193 23.9324 32.5115C23.884 32.5319 23.8362 32.5529 23.7877 32.5733C23.6011 32.6515 23.4121 32.7256 23.2219 32.7967C23.1426 32.8265 23.0632 32.8557 22.9833 32.8837C22.8148 32.9437 22.6456 33.0015 22.4747 33.0563C22.3685 33.0902 22.2617 33.1222 22.155 33.1537C22.0033 33.1992 21.8511 33.243 21.6971 33.2838C21.5676 33.3182 21.4369 33.3497 21.3062 33.3807C21.1692 33.4133 21.0327 33.4466 20.8944 33.4757C20.7433 33.5078 20.5911 33.5352 20.4394 33.5627C20.3163 33.5854 20.1938 33.6093 20.0696 33.6292C19.8987 33.656 19.726 33.6776 19.5539 33.6992C19.4448 33.7132 19.3363 33.7295 19.2261 33.7412C19.0295 33.7622 18.8312 33.7756 18.6334 33.7896C18.5453 33.7954 18.4578 33.8053 18.3686 33.81C18.0798 33.8252 17.7905 33.8333 17.5 33.8333C17.2095 33.8333 16.9202 33.8252 16.632 33.81C16.5433 33.8053 16.4558 33.796 16.3672 33.7896C16.1688 33.7762 15.9711 33.7622 15.7745 33.7412C15.6642 33.7295 15.5557 33.7132 15.4467 33.6992C15.2746 33.6776 15.1019 33.656 14.931 33.6292C14.8068 33.6093 14.6842 33.5854 14.5612 33.5627C14.4089 33.5352 14.2567 33.5072 14.1062 33.4757C13.9679 33.4466 13.8308 33.4133 13.6943 33.3807C13.5637 33.3492 13.433 33.3182 13.3035 33.2838C13.1501 33.243 12.9972 33.1987 12.8456 33.1537C12.7388 33.1222 12.6321 33.0902 12.5259 33.0563C12.355 33.0015 12.1852 32.9437 12.0172 32.8837C11.9373 32.8551 11.858 32.8259 11.7787 32.7967C11.5885 32.7256 11.3995 32.6515 11.2128 32.5733C11.1644 32.5535 11.1172 32.5325 11.0687 32.5121C10.8552 32.4205 10.6435 32.3254 10.4347 32.2251C10.4259 32.221 10.4177 32.2169 10.409 32.2122C8.37375 31.2276 6.57592 29.8299 5.117 28.1324C6.24458 23.9802 9.43658 20.6331 13.5432 19.3013C13.6243 19.3509 13.7089 19.3952 13.7923 19.4419C13.8413 19.4693 13.8897 19.4985 13.9393 19.5247C14.1132 19.6169 14.2893 19.7032 14.4696 19.7808C14.6078 19.8415 14.7507 19.8928 14.8931 19.9453C14.9211 19.9552 14.9491 19.9663 14.9771 19.9762C15.7681 20.2562 16.6145 20.4167 17.5 20.4167C18.3855 20.4167 19.2319 20.2562 20.0223 19.9762C20.0503 19.9663 20.0783 19.9552 20.1063 19.9453C20.2487 19.8928 20.3916 19.8415 20.5298 19.7808C20.7101 19.7032 20.8862 19.6169 21.0601 19.5247C21.1097 19.4979 21.1581 19.4693 21.2071 19.4419C21.2905 19.3952 21.3757 19.3509 21.4573 19.3008C25.564 20.6331 28.7554 23.9802 29.8836 28.1318C28.4247 29.8288 26.6268 31.2264 24.5916 32.2117ZM11.0833 12.8333C11.0833 9.29542 13.9621 6.41667 17.5 6.41667C21.0379 6.41667 23.9167 9.29542 23.9167 12.8333C23.9167 15.0838 22.7494 17.0642 20.9907 18.2099C20.7608 18.3592 20.5217 18.4928 20.2761 18.6095C20.2469 18.6235 20.2183 18.6381 20.1892 18.6515C18.4998 19.4198 16.5002 19.4198 14.8108 18.6515C14.7817 18.6381 14.7525 18.6235 14.7239 18.6095C14.4777 18.4928 14.2392 18.3592 14.0093 18.2099C12.2506 17.0642 11.0833 15.0838 11.0833 12.8333ZM30.7586 27.0217C29.4362 23.1169 26.4192 19.9611 22.5645 18.4619C24.1062 17.073 25.0833 15.0675 25.0833 12.8333C25.0833 8.652 21.6813 5.25 17.5 5.25C13.3187 5.25 9.91667 8.652 9.91667 12.8333C9.91667 15.0675 10.8938 17.073 12.4361 18.4619C8.58142 19.9617 5.56442 23.1169 4.242 27.0217C2.30942 24.339 1.16667 21.0513 1.16667 17.5C1.16667 8.49392 8.49392 1.16667 17.5 1.16667C26.5061 1.16667 33.8333 8.49392 33.8333 17.5C33.8333 21.0513 32.6906 24.339 30.7586 27.0217Z" fill="white"/>
</svg>
