<svg width="22" height="22" viewBox="0 0 22 22" fill="none" xmlns="http://www.w3.org/2000/svg">
<g clip-path="url(#clip0)">
<path d="M11 -0.000152588C4.9258 -0.000152588 0 4.92564 0 10.9998C0 17.074 4.9258 21.9998 11 21.9998C17.0742 21.9998 22 17.074 22 10.9998C22 4.92564 17.0742 -0.000152588 11 -0.000152588ZM16.0225 8.57648C16.0273 8.68474 16.0297 8.7935 16.0297 8.90277C16.0297 12.2391 13.4902 16.0863 8.84602 16.0864H8.84619H8.84602C7.42017 16.0864 6.09334 15.6685 4.97598 14.9523C5.17354 14.9756 5.37462 14.9872 5.57822 14.9872C6.7612 14.9872 7.84985 14.5837 8.7141 13.9064C7.60883 13.886 6.67694 13.156 6.35535 12.1528C6.50926 12.1823 6.66754 12.1984 6.82985 12.1984C7.0603 12.1984 7.28354 12.1674 7.4957 12.1095C6.34041 11.8782 5.47012 10.8572 5.47012 9.63458C5.47012 9.62317 5.47012 9.61293 5.47046 9.60236C5.81068 9.79152 6.19975 9.90532 6.614 9.91807C5.93607 9.46573 5.49043 8.69246 5.49043 7.81647C5.49043 7.35388 5.61548 6.9205 5.83234 6.54738C7.07742 8.07512 8.93817 9.07985 11.0366 9.18542C10.9933 9.00046 10.971 8.80777 10.971 8.60971C10.971 7.21591 12.1017 6.08513 13.496 6.08513C14.2223 6.08513 14.8783 6.39212 15.339 6.8829C15.9142 6.76944 16.4543 6.5593 16.9423 6.2701C16.7535 6.85941 16.3533 7.35388 15.832 7.66658C16.3427 7.60548 16.8295 7.47003 17.2818 7.26895C16.944 7.77534 16.5154 8.22014 16.0225 8.57648Z" fill="#FFC627"/>
</g>
<defs>
<clipPath id="clip0">
<rect width="22" height="22" fill="white"/>
</clipPath>
</defs>
</svg>
