<svg width="30" height="20" viewBox="0 0 30 20" fill="none" xmlns="http://www.w3.org/2000/svg">
<path d="M15.0966 0H15.2635C16.8048 0.00533855 24.6147 0.0587244 26.7204 0.596139C27.357 0.760154 27.9371 1.07985 28.4027 1.52328C28.8683 1.96671 29.2031 2.51835 29.3737 3.12305C29.5631 3.79927 29.6962 4.69437 29.7862 5.61794L29.805 5.80301L29.8462 6.26568L29.8612 6.45075C29.9831 8.07723 29.9981 9.6005 30 9.93327V10.0667C29.9981 10.412 29.9813 12.0384 29.8462 13.7325L29.8312 13.9194L29.8144 14.1045C29.7206 15.1223 29.5819 16.1331 29.3737 16.8769C29.2037 17.4819 28.869 18.0338 28.4033 18.4773C27.9376 18.9208 27.3573 19.2403 26.7204 19.4039C24.5453 19.9591 16.2779 19.9982 15.1322 20H14.8659C14.2865 20 11.8901 19.9893 9.37746 19.9075L9.05869 19.8968L8.89556 19.8897L8.57491 19.8772L8.25427 19.8648C6.17289 19.7776 4.19089 19.637 3.27771 19.4021C2.64108 19.2387 2.06088 18.9194 1.59521 18.4763C1.12954 18.0331 0.794763 17.4816 0.624414 16.8769C0.416276 16.1349 0.277517 15.1223 0.183762 14.1045L0.168761 13.9176L0.15376 13.7325C0.0612181 12.5267 0.00993787 11.3184 0 10.1094L0 9.89056C0.00375024 9.50796 0.0187512 8.18578 0.120008 6.72658L0.133133 6.54329L0.138759 6.45075L0.15376 6.26568L0.195012 5.80301L0.213763 5.61794C0.303769 4.69437 0.436902 3.79749 0.626289 3.12305C0.79635 2.5181 1.131 1.96621 1.59669 1.5227C2.06237 1.0792 2.64273 0.759663 3.27958 0.596139C4.19276 0.364801 6.17476 0.22244 8.25614 0.133464L8.57491 0.121007L8.89743 0.11033L9.05869 0.104992L9.37934 0.0925352C11.1639 0.0380367 12.9492 0.00778159 14.7347 0.0017796H15.0966V0ZM12.0008 5.71225V14.286L19.7956 10.0009L12.0008 5.71225Z" fill="#FFC627"/>
</svg>
